<?xml version="1.0" encoding="utf-8"?>
<!-- Generator: Adobe Illustrator 26.1.0, SVG Export Plug-In . SVG Version: 6.00 Build 0)  -->
<svg version="1.1" id="Layer_1" xmlns="http://www.w3.org/2000/svg" xmlns:xlink="http://www.w3.org/1999/xlink" x="0px" y="0px"
	 viewBox="0 0 700 700" style="enable-background:new 0 0 700 700;" xml:space="preserve">
<g>
	<path d="M140.3,206.7c-0.6-0.9-1.9-1.1-2.7-0.4c-0.9,0.6-1.1,1.9-0.4,2.7c12.9,17.5,20.5,38.4,21.8,60.1
		c-0.1,6.1-0.4,12.2-1.1,18.3c-0.1,1.1,0.7,2,1.8,2.1l0.2,0c0.2,0,0.3-0.1,0.5-0.2c0.1,0,0.2,0.2,0.3,0.2l0.2,0c0,0,0.1,0,0.1,0
		c0,0,0.1,0,0.1,0c0.1,0,0.1-0.1,0.2-0.1c0.1,0,0.2,0.1,0.3,0.1l0.2,0c0.1,0,0.2-0.1,0.3-0.2c0.2,0,0.3,0.2,0.5,0.2l0.2,0l0,0
		c1.1-0.1,1.9-1.1,1.8-2.1c-0.6-6.1-0.9-12.1-1.1-18.2c1.3-21.7,8.9-42.6,21.8-60.1c0.6-0.9,0.4-2.1-0.4-2.7
		c-0.9-0.6-2.1-0.4-2.7,0.4c-7.2,9.8-12.8,20.7-16.7,32.2c-0.4,1.3-0.7,2.6-1.1,3.8c0.1-1,0.1-2,0.2-3c1.6-16.2,4.9-32.1,9.7-47.7
		c0.2-0.5,0.1-1-0.1-1.5c-0.2-0.5-0.7-0.8-1.1-1c-0.5-0.2-1-0.1-1.5,0.1c-0.5,0.2-0.8,0.7-1,1.2c-3.2,10.2-5.7,20.6-7.5,31.2v-30.6
		c0-1.1-0.9-2-2-2c-1.1,0-2,0.9-2,2v29.1c-1.8-10-4.2-19.9-7.2-29.7c-0.2-0.5-0.5-0.9-1-1.2c-0.5-0.2-1-0.3-1.5-0.1
		c-0.5,0.2-0.9,0.5-1.1,1c-0.2,0.5-0.3,1-0.1,1.5c4.8,15.5,8.1,31.5,9.7,47.7c0.1,1,0.1,2,0.2,3c-0.4-1.3-0.6-2.5-1.1-3.8
		C153.1,227.4,147.5,216.5,140.3,206.7L140.3,206.7z"/>
	<path d="M236.1,206.7c-0.6-0.9-1.9-1.1-2.7-0.4c-0.9,0.6-1.1,1.9-0.4,2.7c12.9,17.5,20.5,38.4,21.8,60.1c-0.1,6.1-0.4,12.2-1,18.3
		c-0.1,1.1,0.7,2,1.8,2.1l0.2,0c0.2,0,0.3-0.1,0.5-0.2c0.1,0,0.2,0.2,0.3,0.2l0.2,0c0,0,0.1,0,0.1,0c0,0,0.1,0,0.1,0
		c0.1,0,0.1-0.1,0.2-0.1c0.1,0,0.2,0.1,0.2,0.1l0.2,0c0.1,0,0.2-0.1,0.3-0.2c0.2,0,0.3,0.2,0.5,0.2l0.2,0h0c1.1-0.1,1.9-1.1,1.8-2.1
		c-0.6-6.1-0.9-12.1-1-18.2c1.3-21.7,8.9-42.6,21.8-60.1c0.6-0.9,0.4-2.1-0.4-2.7c-0.9-0.6-2.1-0.4-2.7,0.4
		c-7.2,9.8-12.8,20.7-16.7,32.2c-0.4,1.3-0.7,2.6-1.1,3.8c0.1-1,0.1-2,0.2-3h0c1.6-16.2,4.9-32.1,9.7-47.7c0.2-0.5,0.1-1-0.1-1.5
		c-0.2-0.5-0.7-0.8-1.1-1c-0.5-0.2-1-0.1-1.5,0.1c-0.5,0.2-0.8,0.7-1,1.2c-3.2,10.2-5.7,20.6-7.5,31.2v-30.6c0-1.1-0.9-2-2-2
		c-1.1,0-2,0.9-2,2v29.1c-1.8-10-4.2-19.9-7.2-29.7c-0.2-0.5-0.5-0.9-1-1.2c-0.5-0.2-1-0.3-1.5-0.1c-0.5,0.2-0.9,0.5-1.1,1
		c-0.2,0.5-0.3,1-0.1,1.5c4.9,15.5,8.1,31.5,9.7,47.7c0.1,1,0.1,2,0.2,3c-0.4-1.3-0.6-2.6-1.1-3.8
		C249,227.4,243.3,216.5,236.1,206.7L236.1,206.7z"/>
	<path d="M332.2,206.7c-0.6-0.9-1.9-1.1-2.7-0.4c-0.9,0.6-1.1,1.9-0.4,2.7c12.9,17.5,20.5,38.4,21.8,60.1c-0.1,6.1-0.4,12.2-1,18.3
		h0c-0.1,1.1,0.7,2,1.8,2.1l0.2,0c0.2,0,0.3-0.1,0.5-0.2c0.1,0,0.2,0.2,0.3,0.2l0.2,0c0,0,0.1,0,0.1,0c0,0,0.1,0,0.1,0
		c0.1,0,0.1-0.1,0.2-0.1c0.1,0,0.2,0.1,0.2,0.1l0.2,0c0.1,0,0.2-0.1,0.3-0.2c0.2,0,0.3,0.2,0.5,0.2l0.2,0h0c1.1-0.1,1.9-1.1,1.8-2.1
		c-0.6-6.1-0.9-12.1-1-18.2c1.3-21.7,8.9-42.6,21.8-60.1c0.6-0.9,0.4-2.1-0.4-2.7s-2.1-0.4-2.7,0.4c-7.2,9.8-12.8,20.7-16.7,32.2
		c-0.4,1.3-0.7,2.6-1.1,3.8c0.1-1,0.1-2,0.2-3h0c1.6-16.2,4.9-32.1,9.7-47.7c0.2-0.5,0.1-1-0.1-1.5c-0.2-0.5-0.6-0.8-1.1-1
		c-0.5-0.2-1-0.1-1.5,0.1c-0.5,0.2-0.8,0.7-1,1.2c-3.2,10.2-5.7,20.6-7.5,31.2v-30.6c0-1.1-0.9-2-2-2c-1.1,0-2,0.9-2,2v29.1
		c-1.8-10-4.2-19.9-7.2-29.7c-0.2-0.5-0.5-0.9-1-1.2c-0.5-0.2-1-0.3-1.5-0.1c-0.5,0.2-0.9,0.5-1.1,1c-0.2,0.5-0.3,1-0.1,1.5
		c4.9,15.5,8.1,31.5,9.7,47.7c0.1,1,0.1,2,0.2,3c-0.4-1.3-0.6-2.6-1.1-3.8h0C345,227.4,339.4,216.5,332.2,206.7L332.2,206.7z"/>
	<path d="M188,254.8c-0.6-0.9-1.9-1.1-2.7-0.4c-0.9,0.6-1.1,1.9-0.4,2.7c12.9,17.5,20.5,38.4,21.8,60.1c-0.1,6.1-0.4,12.2-1.1,18.2
		v0c-0.1,1.1,0.7,2,1.8,2.1l0.2,0c0.2,0,0.3-0.1,0.5-0.2c0.1,0,0.2,0.2,0.3,0.2l0.2,0c0,0,0.1,0,0.1,0c0,0,0.1,0,0.1,0
		c0.1,0,0.1-0.1,0.2-0.1c0.1,0,0.2,0.1,0.2,0.1l0.2,0c0.1,0,0.2-0.1,0.3-0.2c0.2,0,0.3,0.2,0.5,0.2l0.2,0v0c1.1-0.1,1.9-1.1,1.8-2.1
		c-0.6-6.1-0.9-12.2-1.1-18.3v0c1.3-21.7,8.9-42.6,21.8-60.1c0.6-0.9,0.4-2.1-0.4-2.7c-0.9-0.6-2.1-0.4-2.7,0.4
		c-7.2,9.8-12.8,20.7-16.7,32.2c-0.4,1.3-0.7,2.5-1.1,3.8c0.1-1,0.1-2,0.2-3c1.6-16.2,4.9-32.1,9.7-47.7c0.3-1-0.3-2.1-1.3-2.4
		c-1-0.3-2.1,0.3-2.4,1.3c-3.2,10.2-5.7,20.6-7.5,31.2v-30.6c0-1.1-0.9-2-2-2c-1.1,0-2,0.9-2,2v29.1c-1.8-10-4.2-19.9-7.2-29.7
		c-0.2-0.5-0.5-0.9-1-1.1c-0.5-0.2-1-0.3-1.5-0.1c-0.5,0.2-0.9,0.5-1.1,1c-0.2,0.5-0.3,1-0.1,1.5c4.8,15.5,8.1,31.5,9.7,47.7
		c0.1,1,0.1,2,0.2,3c-0.4-1.3-0.6-2.6-1.1-3.8C200.8,275.4,195.1,264.6,188,254.8L188,254.8z"/>
	<path d="M284.1,254.8c-0.6-0.9-1.9-1.1-2.7-0.4c-0.9,0.6-1.1,1.9-0.4,2.7c12.9,17.5,20.5,38.4,21.8,60.1
		c-0.1,6.1-0.4,12.2-1.1,18.3c-0.1,1.1,0.7,2,1.8,2.1l0.2,0c0.2,0,0.3-0.1,0.5-0.2c0.1,0,0.2,0.2,0.3,0.2l0.2,0c0,0,0.1,0,0.1,0
		c0,0,0.1,0,0.1,0c0.1,0,0.1-0.1,0.2-0.1c0.1,0,0.2,0.1,0.3,0.1l0.2,0c0.1,0,0.2-0.1,0.3-0.2c0.2,0,0.3,0.2,0.5,0.2l0.2,0l0,0
		c1.1-0.1,1.9-1.1,1.8-2.1c-0.6-6.1-0.9-12.2-1.1-18.3v0c1.3-21.7,8.9-42.6,21.8-60.1c0.6-0.9,0.4-2.1-0.4-2.7
		c-0.9-0.6-2.1-0.4-2.7,0.4c-7.2,9.8-12.8,20.7-16.7,32.2c-0.4,1.3-0.7,2.5-1.1,3.8c0.1-1,0.1-2,0.2-3v0c1.6-16.2,4.9-32.1,9.7-47.7
		c0.2-0.5,0.1-1-0.1-1.5c-0.2-0.5-0.7-0.8-1.1-1c-0.5-0.2-1-0.1-1.5,0.1c-0.5,0.2-0.8,0.7-1,1.1c-3.2,10.2-5.7,20.6-7.5,31.2v-30.6
		c0-1.1-0.9-2-2-2c-1.1,0-2,0.9-2,2v29.1c-1.8-10-4.2-19.9-7.2-29.7c-0.2-0.5-0.5-0.9-1-1.1c-0.5-0.2-1-0.3-1.5-0.1
		c-0.5,0.2-0.9,0.5-1.1,1c-0.2,0.5-0.3,1-0.1,1.5c4.8,15.5,8.1,31.5,9.7,47.7c0.1,1,0.1,2,0.2,3c-0.4-1.3-0.6-2.5-1.1-3.8
		C296.9,275.4,291.3,264.6,284.1,254.8L284.1,254.8z"/>
	<path d="M188,134.6c-0.6-0.9-1.9-1.1-2.7-0.4c-0.9,0.6-1.1,1.9-0.4,2.7c12.9,17.5,20.5,38.4,21.8,60.1c-0.1,6.1-0.4,12.2-1.1,18.2
		c-0.1,1.1,0.7,2,1.8,2.1l0.2,0c0.2,0,0.3-0.1,0.5-0.2c0.1,0,0.2,0.2,0.3,0.2l0.2,0c0,0,0.1,0,0.1,0c0,0,0.1,0,0.1,0
		c0.1,0,0.1-0.1,0.2-0.1c0.1,0,0.2,0.1,0.2,0.1l0.2,0c0.1,0,0.2-0.1,0.3-0.2c0.2,0,0.3,0.2,0.5,0.2l0.2,0v0c1.1-0.1,1.9-1.1,1.8-2.1
		c-0.6-6.1-0.9-12.2-1.1-18.3c1.3-21.7,8.9-42.6,21.8-60.1c0.6-0.9,0.4-2.1-0.4-2.7c-0.9-0.6-2.1-0.4-2.7,0.4
		c-7.2,9.8-12.8,20.7-16.7,32.2c-0.4,1.3-0.7,2.5-1.1,3.8c0.1-1,0.1-2,0.2-3v0c1.6-16.2,4.9-32.1,9.7-47.7c0.3-1-0.3-2.1-1.3-2.4
		c-1-0.3-2.1,0.3-2.4,1.3c-3.2,10.2-5.7,20.6-7.5,31.2v-30.6c0-1.1-0.9-2-2-2c-1.1,0-2,0.9-2,2v29.1c-1.8-10-4.2-19.9-7.2-29.7
		c-0.2-0.5-0.5-0.9-1-1.1c-0.5-0.2-1-0.3-1.5-0.1c-0.5,0.2-0.9,0.5-1.1,1c-0.2,0.5-0.3,1-0.1,1.5c4.8,15.5,8.1,31.5,9.7,47.7
		c0.1,1,0.1,2,0.2,3c-0.4-1.3-0.6-2.6-1.1-3.8C200.8,155.3,195.1,144.4,188,134.6L188,134.6z"/>
	<path d="M284.1,134.6c-0.6-0.9-1.9-1.1-2.7-0.4c-0.9,0.6-1.1,1.9-0.4,2.7c12.9,17.5,20.5,38.4,21.8,60.1
		c-0.1,6.1-0.4,12.2-1.1,18.3c-0.1,1.1,0.7,2,1.8,2.1l0.2,0c0.2,0,0.3-0.1,0.5-0.2c0.1,0,0.2,0.2,0.3,0.2l0.2,0c0,0,0.1,0,0.1,0
		c0,0,0.1,0,0.1,0c0.1,0,0.1-0.1,0.2-0.1c0.1,0,0.2,0.1,0.3,0.1l0.2,0c0.1,0,0.2-0.1,0.3-0.2c0.2,0,0.3,0.2,0.5,0.2l0.2,0l0,0
		c1.1-0.1,1.9-1.1,1.8-2.1c-0.6-6.1-0.9-12.2-1.1-18.3c1.3-21.7,8.9-42.6,21.8-60.1c0.6-0.9,0.4-2.1-0.4-2.7
		c-0.9-0.6-2.1-0.4-2.7,0.4c-7.2,9.8-12.8,20.7-16.7,32.2c-0.4,1.3-0.7,2.5-1.1,3.8c0.1-1,0.1-2,0.2-3c1.6-16.2,4.9-32.1,9.7-47.7
		c0.2-0.5,0.1-1-0.1-1.5c-0.2-0.5-0.7-0.8-1.1-1c-0.5-0.2-1-0.1-1.5,0.1c-0.5,0.2-0.8,0.7-1,1.1c-3.2,10.2-5.7,20.6-7.5,31.2v-30.6
		c0-1.1-0.9-2-2-2c-1.1,0-2,0.9-2,2v29.1c-1.8-10-4.2-19.9-7.2-29.7c-0.2-0.5-0.5-0.9-1-1.1c-0.5-0.2-1-0.3-1.5-0.1
		c-0.5,0.2-0.9,0.5-1.1,1c-0.2,0.5-0.3,1-0.1,1.5c4.8,15.5,8.1,31.5,9.7,47.7c0.1,1,0.1,2,0.2,3c-0.4-1.3-0.6-2.5-1.1-3.8
		C296.9,155.3,291.3,144.4,284.1,134.6L284.1,134.6z"/>
	<path d="M137.1,454c12.9,17.5,20.5,38.4,21.8,60.1c-0.1,6.1-0.4,12.2-1.1,18.3v0c-0.1,1.1,0.7,2,1.8,2.1l0.2,0
		c0.2,0,0.3-0.1,0.5-0.2c0.1,0,0.2,0.2,0.3,0.2l0.2,0c0,0,0.1,0,0.1,0c0,0,0.1,0,0.1,0c0.1,0,0.1-0.1,0.2-0.1c0.1,0,0.2,0.1,0.3,0.1
		l0.2,0c0.1,0,0.2-0.1,0.3-0.2c0.2,0,0.3,0.2,0.5,0.2l0.2,0l0,0c1.1-0.1,1.9-1.1,1.8-2.1c-0.6-6.1-0.9-12.1-1.1-18.2
		c1.3-21.7,8.9-42.6,21.8-60.1c0.6-0.9,0.4-2.1-0.4-2.7c-0.9-0.6-2.1-0.4-2.7,0.4c-7.2,9.8-12.8,20.7-16.7,32.2
		c-0.4,1.3-0.7,2.6-1.1,3.8c0.1-1,0.1-2,0.2-3v0c1.6-16.2,4.9-32.1,9.7-47.7c0.2-0.5,0.1-1-0.1-1.5c-0.2-0.5-0.7-0.8-1.1-1
		c-0.5-0.2-1-0.1-1.5,0.1c-0.5,0.2-0.8,0.7-1,1.1c-3.2,10.2-5.7,20.6-7.5,31.2v-30.6c0-1.1-0.9-2-2-2c-1.1,0-2,0.9-2,2v29.1v0
		c-1.8-10-4.2-19.9-7.2-29.7c-0.2-0.5-0.5-0.9-1-1.1c-0.5-0.2-1-0.3-1.5-0.1c-0.5,0.2-0.9,0.5-1.1,1c-0.2,0.5-0.3,1-0.1,1.5
		c4.8,15.5,8.1,31.5,9.7,47.7c0.1,1,0.1,2,0.2,3c-0.4-1.3-0.6-2.5-1.1-3.8v0c-3.9-11.5-9.5-22.4-16.7-32.2c-0.6-0.9-1.9-1.1-2.7-0.4
		C136.7,451.9,136.5,453.1,137.1,454L137.1,454z"/>
	<path d="M255.5,534.5l0.2,0c0.2,0,0.3-0.1,0.5-0.2c0.1,0,0.2,0.2,0.3,0.2l0.2,0c0,0,0.1,0,0.1,0c0,0,0.1,0,0.1,0
		c0.1,0,0.1-0.1,0.2-0.1c0.1,0,0.2,0.1,0.2,0.1l0.2,0c0.1,0,0.2-0.1,0.3-0.2c0.2,0,0.3,0.2,0.5,0.2l0.2,0h0c1.1-0.1,1.9-1.1,1.8-2.1
		c-0.6-6.1-0.9-12.1-1-18.2c1.3-21.7,8.9-42.6,21.8-60.1c0.6-0.9,0.4-2.1-0.4-2.7c-0.9-0.6-2.1-0.4-2.7,0.4
		c-7.2,9.8-12.8,20.7-16.7,32.2c-0.4,1.3-0.7,2.6-1.1,3.8c0.1-1,0.1-2,0.2-3h0c1.6-16.2,4.9-32.1,9.7-47.7c0.2-0.5,0.1-1-0.1-1.5
		c-0.2-0.5-0.6-0.8-1.1-1c-0.5-0.2-1-0.1-1.5,0.1c-0.5,0.2-0.8,0.7-1,1.1c-3.2,10.2-5.7,20.6-7.5,31.2v-30.6c0-1.1-0.9-2-2-2
		c-1.1,0-2,0.9-2,2v29.1c-1.8-10-4.2-19.9-7.2-29.7c-0.2-0.5-0.5-0.9-1-1.1c-0.5-0.2-1-0.3-1.5-0.1c-0.5,0.2-0.9,0.5-1.1,1
		c-0.2,0.5-0.3,1-0.1,1.5c4.9,15.5,8.1,31.5,9.7,47.7c0.1,1,0.1,2,0.2,3c-0.4-1.3-0.6-2.6-1.1-3.8c-3.9-11.5-9.5-22.4-16.7-32.2
		c-0.6-0.9-1.9-1.1-2.7-0.4c-0.9,0.6-1.1,1.9-0.4,2.7c12.9,17.5,20.5,38.4,21.8,60.1c-0.1,6.1-0.4,12.2-1,18.3
		C253.6,533.5,254.4,534.4,255.5,534.5z"/>
	<path d="M377,454c0.6-0.9,0.4-2.1-0.4-2.7c-0.9-0.6-2.1-0.4-2.7,0.4c-7.2,9.8-12.8,20.7-16.7,32.2c-0.4,1.3-0.7,2.6-1.1,3.8
		c0.1-1,0.1-2,0.2-3h0c1.6-16.2,4.9-32.1,9.7-47.7c0.2-0.5,0.1-1-0.1-1.5c-0.2-0.5-0.7-0.8-1.1-1c-0.5-0.2-1-0.1-1.5,0.1
		c-0.5,0.2-0.8,0.7-1,1.1c-3.2,10.2-5.7,20.6-7.5,31.2v-30.6c0-1.1-0.9-2-2-2c-1.1,0-2,0.9-2,2v29.1c-1.8-10-4.2-19.9-7.2-29.7
		c-0.2-0.5-0.5-0.9-1-1.1c-0.5-0.2-1-0.3-1.5-0.1c-0.5,0.2-0.9,0.5-1.1,1c-0.2,0.5-0.3,1-0.1,1.5c4.9,15.5,8.1,31.5,9.7,47.7
		c0.1,1,0.1,2,0.2,3c-0.4-1.3-0.6-2.6-1.1-3.8h0c-3.9-11.5-9.5-22.4-16.7-32.2c-0.6-0.9-1.9-1.1-2.7-0.4c-0.9,0.6-1.1,1.9-0.4,2.7
		c12.9,17.5,20.5,38.4,21.8,60.1c-0.1,6.1-0.4,12.2-1,18.3h0c-0.1,1.1,0.7,2,1.8,2.1l0.2,0c0.2,0,0.3-0.1,0.5-0.2
		c0.1,0,0.2,0.2,0.3,0.2l0.2,0c0,0,0.1,0,0.1,0c0,0,0.1,0,0.1,0c0.1,0,0.1-0.1,0.2-0.1c0.1,0,0.2,0.1,0.2,0.1l0.2,0
		c0.1,0,0.2-0.1,0.3-0.2c0.2,0,0.3,0.2,0.5,0.2l0.2,0h0c1.1-0.1,1.9-1.1,1.8-2.1c-0.6-6.1-0.9-12.1-1-18.2v0
		C356.5,492.4,364.1,471.5,377,454L377,454z"/>
	<path d="M137.1,333.9c12.9,17.5,20.5,38.4,21.8,60.1c-0.1,6.1-0.4,12.2-1.1,18.3c-0.1,1.1,0.7,2,1.8,2.1l0.2,0
		c0.2,0,0.3-0.1,0.5-0.2c0.1,0,0.2,0.2,0.3,0.2l0.2,0c0,0,0.1,0,0.1,0c0,0,0.1,0,0.1,0c0.1,0,0.1-0.1,0.2-0.1c0.1,0,0.2,0.1,0.3,0.1
		l0.2,0c0.1,0,0.2-0.1,0.3-0.2c0.2,0,0.3,0.2,0.5,0.2l0.2,0l0,0c1.1-0.1,1.9-1.1,1.8-2.1c-0.6-6.1-0.9-12.1-1.1-18.2v0
		c1.3-21.7,8.9-42.6,21.8-60.1c0.6-0.9,0.4-2.1-0.4-2.7c-0.9-0.6-2.1-0.4-2.7,0.4c-7.2,9.8-12.8,20.7-16.7,32.2
		c-0.4,1.3-0.7,2.6-1.1,3.8c0.1-1,0.1-2,0.2-3c1.6-16.2,4.9-32.1,9.7-47.7c0.2-0.5,0.1-1-0.1-1.5c-0.2-0.5-0.7-0.8-1.1-1
		c-0.5-0.2-1-0.1-1.5,0.1c-0.5,0.2-0.8,0.7-1,1.1c-3.2,10.2-5.7,20.6-7.5,31.2v-30.6c0-1.1-0.9-2-2-2c-1.1,0-2,0.9-2,2v29.1
		c-1.8-10-4.2-19.9-7.2-29.7c-0.2-0.5-0.5-0.9-1-1.1c-0.5-0.2-1-0.3-1.5-0.1c-0.5,0.2-0.9,0.5-1.1,1c-0.2,0.5-0.3,1-0.1,1.5
		c4.8,15.5,8.1,31.5,9.7,47.7c0.1,1,0.1,2,0.2,3c-0.4-1.3-0.6-2.5-1.1-3.8c-3.9-11.5-9.5-22.4-16.7-32.2c-0.6-0.9-1.9-1.1-2.7-0.4
		C136.7,331.8,136.5,333,137.1,333.9L137.1,333.9z"/>
	<path d="M236.1,331.6c-0.6-0.9-1.9-1.1-2.7-0.4c-0.9,0.6-1.1,1.9-0.4,2.7c12.9,17.5,20.5,38.4,21.8,60.1c-0.1,6.1-0.4,12.2-1,18.3
		c-0.1,1.1,0.7,2,1.8,2.1l0.2,0c0.2,0,0.3-0.1,0.5-0.2c0.1,0,0.2,0.2,0.3,0.2l0.2,0c0,0,0.1,0,0.1,0c0,0,0.1,0,0.1,0
		c0.1,0,0.1-0.1,0.2-0.1c0.1,0,0.2,0.1,0.2,0.1l0.2,0c0.1,0,0.2-0.1,0.3-0.2c0.2,0,0.3,0.2,0.5,0.2l0.2,0h0c1.1-0.1,1.9-1.1,1.8-2.1
		c-0.6-6.1-0.9-12.1-1-18.2v0c1.3-21.7,8.9-42.6,21.8-60.1c0.6-0.9,0.4-2.1-0.4-2.7c-0.9-0.6-2.1-0.4-2.7,0.4
		c-7.2,9.8-12.8,20.7-16.7,32.2c-0.4,1.3-0.7,2.6-1.1,3.8c0.1-1,0.1-2,0.2-3l0,0c1.6-16.2,4.9-32.1,9.7-47.7c0.2-0.5,0.1-1-0.1-1.5
		c-0.2-0.5-0.7-0.8-1.1-1c-0.5-0.2-1-0.1-1.5,0.1c-0.5,0.2-0.8,0.7-1,1.1c-3.2,10.2-5.7,20.6-7.5,31.2v-30.6c0-1.1-0.9-2-2-2
		c-1.1,0-2,0.9-2,2v29.1c-1.8-10-4.2-19.9-7.2-29.7c-0.2-0.5-0.5-0.9-1-1.1c-0.5-0.2-1-0.3-1.5-0.1c-0.5,0.2-0.9,0.5-1.1,1
		c-0.2,0.5-0.3,1-0.1,1.5c4.9,15.5,8.1,31.5,9.7,47.7c0.1,1,0.1,2,0.2,3c-0.4-1.3-0.6-2.6-1.1-3.8v0
		C249,352.2,243.3,341.4,236.1,331.6L236.1,331.6z"/>
	<path d="M332.2,331.6c-0.6-0.9-1.9-1.1-2.7-0.4c-0.9,0.6-1.1,1.9-0.4,2.7c12.9,17.5,20.5,38.4,21.8,60.1c-0.1,6.1-0.4,12.2-1,18.3
		h0c-0.1,1.1,0.7,2,1.8,2.1l0.2,0c0.2,0,0.3-0.1,0.5-0.2c0.1,0,0.2,0.2,0.3,0.2l0.2,0c0,0,0.1,0,0.1,0c0,0,0.1,0,0.1,0
		c0.1,0,0.1-0.1,0.2-0.1c0.1,0,0.2,0.1,0.2,0.1l0.2,0c0.1,0,0.2-0.1,0.3-0.2c0.2,0,0.3,0.2,0.5,0.2l0.2,0h0c1.1-0.1,1.9-1.1,1.8-2.1
		c-0.6-6.1-0.9-12.1-1-18.2v0c1.3-21.7,8.9-42.6,21.8-60.1c0.6-0.9,0.4-2.1-0.4-2.7s-2.1-0.4-2.7,0.4c-7.2,9.8-12.8,20.7-16.7,32.2
		c-0.4,1.3-0.7,2.6-1.1,3.8c0.1-1,0.1-2,0.2-3l0,0c1.6-16.2,4.9-32.1,9.7-47.7c0.2-0.5,0.1-1-0.1-1.5c-0.2-0.5-0.6-0.8-1.1-1
		c-0.5-0.2-1-0.1-1.5,0.1c-0.5,0.2-0.8,0.7-1,1.1c-3.2,10.2-5.7,20.6-7.5,31.2v-30.6c0-1.1-0.9-2-2-2c-1.1,0-2,0.9-2,2v29.1
		c-1.8-10-4.2-19.9-7.2-29.7c-0.2-0.5-0.5-0.9-1-1.1c-0.5-0.2-1-0.3-1.5-0.1c-0.5,0.2-0.9,0.5-1.1,1c-0.2,0.5-0.3,1-0.1,1.5
		c4.9,15.5,8.1,31.5,9.7,47.7c0.1,1,0.1,2,0.2,3c-0.4-1.3-0.6-2.6-1.1-3.8l0,0C345,352.2,339.4,341.4,332.2,331.6L332.2,331.6z"/>
	<path d="M232.8,502.1c0.6-0.9,0.4-2.1-0.4-2.7c-0.9-0.6-2.1-0.4-2.7,0.4c-7.2,9.8-12.8,20.7-16.7,32.2c-0.4,1.3-0.7,2.5-1.1,3.8
		c0.1-1,0.1-2,0.2-3v0c1.6-16.2,4.9-32.1,9.7-47.7c0.3-1-0.3-2.1-1.3-2.4c-1-0.3-2.1,0.3-2.4,1.3c-3.2,10.2-5.7,20.6-7.5,31.2v-30.6
		v0c0-1.1-0.9-2-2-2c-1.1,0-2,0.9-2,2v29.1c-1.8-10-4.2-19.9-7.2-29.7c-0.2-0.5-0.5-0.9-1-1.2c-0.5-0.2-1-0.3-1.5-0.1
		c-0.5,0.2-0.9,0.5-1.1,1c-0.2,0.5-0.3,1-0.1,1.5c4.8,15.5,8.1,31.5,9.7,47.7c0.1,1,0.1,2,0.2,3c-0.4-1.3-0.6-2.6-1.1-3.8
		c-3.9-11.5-9.5-22.4-16.7-32.2c-0.6-0.9-1.9-1.1-2.7-0.4c-0.9,0.6-1.1,1.9-0.4,2.7c12.9,17.5,20.5,38.4,21.8,60.1
		c-0.1,6.1-0.4,12.2-1.1,18.2c-0.1,1.1,0.7,2,1.8,2.1l0.2,0c0.2,0,0.3-0.1,0.5-0.2c0.1,0,0.2,0.2,0.3,0.2l0.2,0c0,0,0.1,0,0.1,0
		c0,0,0.1,0,0.1,0c0.1,0,0.1-0.1,0.2-0.1c0.1,0,0.2,0.1,0.2,0.1l0.2,0c0.1,0,0.2-0.1,0.3-0.2c0.2,0,0.3,0.2,0.5,0.2l0.2,0v0
		c1.1-0.1,1.9-1.1,1.8-2.1c-0.6-6.1-0.9-12.2-1.1-18.3C212.3,540.4,219.9,519.6,232.8,502.1L232.8,502.1z"/>
	<path d="M328.9,502.1c0.6-0.9,0.4-2.1-0.4-2.7c-0.9-0.6-2.1-0.4-2.7,0.4c-7.2,9.8-12.8,20.7-16.7,32.2c-0.4,1.3-0.7,2.5-1.1,3.8
		c0.1-1,0.1-2,0.2-3c1.6-16.2,4.9-32.1,9.7-47.7c0.2-0.5,0.1-1-0.1-1.5c-0.2-0.5-0.7-0.8-1.1-1c-0.5-0.2-1-0.1-1.5,0.1
		c-0.5,0.2-0.8,0.7-1,1.2c-3.2,10.2-5.7,20.6-7.5,31.2v-30.6v0c0-1.1-0.9-2-2-2c-1.1,0-2,0.9-2,2v29.1c-1.8-10-4.2-19.9-7.2-29.7
		c-0.2-0.5-0.5-0.9-1-1.2c-0.5-0.2-1-0.3-1.5-0.1c-0.5,0.2-0.9,0.5-1.1,1c-0.2,0.5-0.3,1-0.1,1.5c4.8,15.5,8.1,31.5,9.7,47.7
		c0.1,1,0.1,2,0.2,3c-0.4-1.3-0.6-2.5-1.1-3.8v0c-3.9-11.5-9.5-22.4-16.7-32.2c-0.6-0.9-1.9-1.1-2.7-0.4c-0.9,0.6-1.1,1.9-0.4,2.7
		c12.9,17.5,20.5,38.4,21.8,60.1c-0.1,6.1-0.4,12.2-1.1,18.3h0c-0.1,1.1,0.7,2,1.8,2.1l0.2,0c0.2,0,0.3-0.1,0.5-0.2
		c0.1,0,0.2,0.2,0.3,0.2l0.2,0c0,0,0.1,0,0.1,0c0,0,0.1,0,0.1,0c0.1,0,0.1-0.1,0.2-0.1c0.1,0,0.2,0.1,0.3,0.1l0.2,0
		c0.1,0,0.2-0.1,0.3-0.2c0.2,0,0.3,0.2,0.5,0.2l0.2,0l0,0c1.1-0.1,1.9-1.1,1.8-2.1c-0.6-6.1-0.9-12.2-1.1-18.3
		C308.4,540.5,316,519.6,328.9,502.1L328.9,502.1z"/>
	<path d="M184.8,381.9c12.9,17.5,20.5,38.4,21.8,60.1c-0.1,6.1-0.4,12.2-1.1,18.2c-0.1,1.1,0.7,2,1.8,2.1l0.2,0
		c0.2,0,0.3-0.1,0.5-0.2c0.1,0,0.2,0.2,0.3,0.2l0.2,0c0,0,0.1,0,0.1,0c0,0,0.1,0,0.1,0c0.1,0,0.1-0.1,0.2-0.1c0.1,0,0.2,0.1,0.2,0.1
		l0.2,0c0.1,0,0.2-0.1,0.3-0.2c0.2,0,0.3,0.2,0.5,0.2l0.2,0v0c1.1-0.1,1.9-1.1,1.8-2.1c-0.6-6.1-0.9-12.2-1.1-18.3
		c1.3-21.7,8.9-42.6,21.8-60.1c0.6-0.9,0.4-2.1-0.4-2.7c-0.9-0.6-2.1-0.4-2.7,0.4c-7.2,9.8-12.8,20.7-16.7,32.2
		c-0.4,1.3-0.7,2.5-1.1,3.8c0.1-1,0.1-2,0.2-3v0c1.6-16.2,4.9-32.1,9.7-47.7c0.3-1-0.3-2.1-1.3-2.4c-1-0.3-2.1,0.3-2.4,1.3
		c-3.2,10.2-5.7,20.6-7.5,31.2v-30.6c0-1.1-0.9-2-2-2s-2,0.9-2,2v29.1c-1.8-10-4.2-19.9-7.2-29.7c-0.2-0.5-0.5-0.9-1-1.2
		c-0.5-0.2-1-0.3-1.5-0.1c-0.5,0.2-0.9,0.5-1.1,1c-0.2,0.5-0.3,1-0.1,1.5c4.8,15.5,8.1,31.5,9.7,47.7c0.1,1,0.1,2,0.2,3
		c-0.4-1.3-0.6-2.6-1.1-3.8c-3.9-11.5-9.5-22.4-16.7-32.2c-0.6-0.9-1.9-1.1-2.7-0.4C184.4,379.8,184.2,381.1,184.8,381.9
		L184.8,381.9z"/>
	<path d="M284.1,379.6c-0.6-0.9-1.9-1.1-2.7-0.4c-0.9,0.6-1.1,1.9-0.4,2.7c12.9,17.5,20.5,38.4,21.8,60.1
		c-0.1,6.1-0.4,12.2-1.1,18.3c-0.1,1.1,0.7,2,1.8,2.1l0.2,0c0.2,0,0.3-0.1,0.5-0.2c0.1,0,0.2,0.2,0.3,0.2l0.2,0c0,0,0.1,0,0.1,0
		c0,0,0.1,0,0.1,0c0.1,0,0.1-0.1,0.2-0.1c0.1,0,0.2,0.1,0.3,0.1l0.2,0c0.1,0,0.2-0.1,0.3-0.2c0.2,0,0.3,0.2,0.5,0.2l0.2,0l0,0
		c1.1-0.1,1.9-1.1,1.8-2.1c-0.6-6.1-0.9-12.2-1.1-18.3c1.3-21.7,8.9-42.6,21.8-60.1c0.6-0.9,0.4-2.1-0.4-2.7
		c-0.9-0.6-2.1-0.4-2.7,0.4c-7.2,9.8-12.8,20.7-16.7,32.2c-0.4,1.3-0.7,2.5-1.1,3.8c0.1-1,0.1-2,0.2-3c1.6-16.2,4.9-32.1,9.7-47.7
		c0.2-0.5,0.1-1-0.1-1.5c-0.2-0.5-0.7-0.8-1.1-1c-0.5-0.2-1-0.1-1.5,0.1c-0.5,0.2-0.8,0.7-1,1.2c-3.2,10.2-5.7,20.6-7.5,31.2v-30.6
		c0-1.1-0.9-2-2-2c-1.1,0-2,0.9-2,2v29.1c-1.8-10-4.2-19.9-7.2-29.7c-0.2-0.5-0.5-0.9-1-1.2c-0.5-0.2-1-0.3-1.5-0.1
		c-0.5,0.2-0.9,0.5-1.1,1c-0.2,0.5-0.3,1-0.1,1.5c4.8,15.5,8.1,31.5,9.7,47.7c0.1,1,0.1,2,0.2,3c-0.4-1.3-0.6-2.5-1.1-3.8v0
		C296.9,400.3,291.3,389.4,284.1,379.6L284.1,379.6z"/>
	<path d="M425.1,206.7c-0.6-0.9-1.9-1.1-2.7-0.4c-0.9,0.6-1.1,1.9-0.4,2.7c12.9,17.5,20.5,38.4,21.8,60.1
		c-0.1,6.1-0.4,12.2-1.1,18.3v0c-0.1,1.1,0.7,2,1.8,2.1l0.2,0c0.2,0,0.3-0.1,0.5-0.2c0.1,0,0.2,0.2,0.3,0.2l0.2,0c0,0,0.1,0,0.1,0
		c0,0,0.1,0,0.1,0c0.1,0,0.1-0.1,0.2-0.1c0.1,0,0.2,0.1,0.2,0.1l0.2,0c0.1,0,0.2-0.1,0.3-0.2c0.2,0,0.3,0.2,0.5,0.2l0.2,0l0,0
		c1.1-0.1,1.9-1.1,1.8-2.1c-0.6-6.1-0.9-12.2-1.1-18.3v0c1.3-21.7,8.9-42.6,21.8-60.1c0.6-0.9,0.4-2.1-0.4-2.7
		c-0.9-0.6-2.1-0.4-2.7,0.4c-7.2,9.8-12.8,20.7-16.7,32.2c-0.4,1.3-0.7,2.5-1.1,3.8c0.1-1,0.1-2,0.2-3v0c1.6-16.2,4.9-32.1,9.7-47.7
		c0.3-1-0.3-2.1-1.3-2.4c-1-0.3-2.1,0.2-2.4,1.3c-3.2,10.2-5.7,20.6-7.5,31.2v-30.6c0-1.1-0.9-2-2-2c-1.1,0-2,0.9-2,2v29.1
		c-1.8-10-4.2-19.9-7.2-29.7c-0.2-0.5-0.5-0.9-1-1.2c-0.5-0.2-1-0.3-1.5-0.1c-0.5,0.2-0.9,0.5-1.1,1c-0.2,0.5-0.3,1-0.1,1.5
		c4.8,15.5,8.1,31.5,9.7,47.7c0.1,1,0.1,2,0.2,3c-0.4-1.3-0.6-2.5-1.1-3.8v0C437.9,227.4,432.3,216.5,425.1,206.7L425.1,206.7z"/>
	<path d="M377,254.8c-0.6-0.9-1.9-1.1-2.7-0.4c-0.9,0.6-1.1,1.9-0.4,2.7c12.9,17.5,20.5,38.4,21.8,60.1c-0.1,6.1-0.4,12.2-1,18.3
		c-0.1,1.1,0.7,2,1.8,2.1l0.2,0c0.2,0,0.3-0.1,0.5-0.2c0.1,0,0.2,0.2,0.3,0.2l0.2,0c0,0,0.1,0,0.1,0c0,0,0.1,0,0.1,0
		c0.1,0,0.1-0.1,0.2-0.1c0.1,0,0.2,0.1,0.2,0.1l0.2,0c0.1,0,0.2-0.1,0.3-0.2c0.2,0,0.3,0.2,0.5,0.2l0.2,0h0c1.1-0.1,1.9-1.1,1.8-2.1
		c-0.6-6.1-0.9-12.2-1-18.3v0c1.3-21.7,8.9-42.6,21.8-60.1c0.6-0.9,0.4-2.1-0.4-2.7c-0.9-0.6-2.1-0.4-2.7,0.4
		c-7.2,9.8-12.8,20.7-16.7,32.2c-0.4,1.3-0.7,2.6-1.1,3.8c0.1-1,0.1-2,0.2-3v0c1.6-16.2,4.9-32.1,9.7-47.7c0.2-0.5,0.1-1-0.1-1.5
		c-0.2-0.5-0.7-0.8-1.1-1c-0.5-0.2-1-0.1-1.5,0.1c-0.5,0.2-0.8,0.7-1,1.1c-3.2,10.2-5.7,20.6-7.5,31.1v-30.5c0-1.1-0.9-2-2-2
		c-1.1,0-2,0.9-2,2v29.1c-1.8-10-4.2-19.9-7.2-29.7c-0.2-0.5-0.5-0.9-1-1.1c-0.5-0.2-1-0.3-1.5-0.1c-0.5,0.2-0.9,0.5-1.1,1
		c-0.2,0.5-0.3,1-0.1,1.5c4.9,15.5,8.1,31.5,9.7,47.7c0.1,1,0.1,2,0.2,3c-0.4-1.3-0.6-2.6-1.1-3.8h0
		C389.8,275.4,384.2,264.6,377,254.8L377,254.8z"/>
	<path d="M377,134.6c-0.6-0.9-1.9-1.1-2.7-0.4c-0.9,0.6-1.1,1.9-0.4,2.7c12.9,17.5,20.5,38.4,21.8,60.1c-0.1,6.1-0.4,12.2-1,18.3
		c-0.1,1.1,0.7,2,1.8,2.1l0.2,0c0.2,0,0.3-0.1,0.5-0.2c0.1,0,0.2,0.2,0.3,0.2l0.2,0c0,0,0.1,0,0.1,0c0,0,0.1,0,0.1,0
		c0.1,0,0.1-0.1,0.2-0.1c0.1,0,0.2,0.1,0.2,0.1l0.2,0c0.1,0,0.2-0.1,0.3-0.2c0.2,0,0.3,0.2,0.5,0.2l0.2,0h0c1.1-0.1,1.9-1.1,1.8-2.1
		c-0.6-6.1-0.9-12.2-1-18.3c1.3-21.7,8.9-42.6,21.8-60.1c0.6-0.9,0.4-2.1-0.4-2.7c-0.9-0.6-2.1-0.4-2.7,0.4
		c-7.2,9.8-12.8,20.7-16.7,32.2c-0.4,1.3-0.7,2.6-1.1,3.8c0.1-1,0.1-2,0.2-3c1.6-16.2,4.9-32.1,9.7-47.7c0.2-0.5,0.1-1-0.1-1.5
		c-0.2-0.5-0.7-0.8-1.1-1c-0.5-0.2-1-0.1-1.5,0.1c-0.5,0.2-0.8,0.7-1,1.1c-3.2,10.2-5.7,20.6-7.5,31.1v-30.5c0-1.1-0.9-2-2-2
		c-1.1,0-2,0.9-2,2v29.1c-1.8-10-4.2-19.9-7.2-29.7c-0.2-0.5-0.5-0.9-1-1.1c-0.5-0.2-1-0.3-1.5-0.1c-0.5,0.2-0.9,0.5-1.1,1
		c-0.2,0.5-0.3,1-0.1,1.5c4.9,15.5,8.1,31.5,9.7,47.7c0.1,1,0.1,2,0.2,3c-0.4-1.3-0.6-2.6-1.1-3.8h0
		C389.8,155.3,384.2,144.4,377,134.6L377,134.6z"/>
	<path d="M459,437c0.3-1-0.3-2.1-1.3-2.4s-2.1,0.3-2.4,1.3c-3.2,10.2-5.7,20.6-7.5,31.2v-30.6c0-1.1-0.9-2-2-2c-1.1,0-2,0.9-2,2
		v29.1v0c-1.8-10-4.2-19.9-7.2-29.7c-0.2-0.5-0.5-0.9-1-1.1c-0.5-0.2-1-0.3-1.5-0.1c-0.5,0.2-0.9,0.5-1.1,1c-0.2,0.5-0.3,1-0.1,1.5
		c4.8,15.5,8.1,31.5,9.7,47.7c0.1,1,0.1,2,0.2,3c-0.4-1.3-0.6-2.5-1.1-3.8c-3.9-11.5-9.5-22.4-16.7-32.2c-0.6-0.9-1.9-1.1-2.7-0.4
		c-0.9,0.6-1.1,1.9-0.4,2.7c12.9,17.5,20.5,38.4,21.8,60.1c-0.1,6.1-0.4,12.2-1.1,18.3v0c-0.1,1.1,0.7,2,1.8,2.1l0.2,0
		c0.2,0,0.3-0.1,0.5-0.2c0.1,0,0.2,0.2,0.3,0.2l0.2,0c0,0,0.1,0,0.1,0c0,0,0.1,0,0.1,0c0.1,0,0.1-0.1,0.2-0.1c0.1,0,0.2,0.1,0.2,0.1
		l0.2,0c0.1,0,0.2-0.1,0.3-0.2c0.2,0,0.3,0.2,0.5,0.2l0.2,0l0,0c1.1-0.1,1.9-1.1,1.8-2.1c-0.6-6.1-0.9-12.2-1.1-18.3v0
		c1.3-21.7,8.9-42.6,21.8-60.1c0.6-0.9,0.4-2.1-0.4-2.7c-0.9-0.6-2.1-0.4-2.7,0.4c-7.2,9.8-12.8,20.7-16.7,32.2
		c-0.4,1.3-0.7,2.5-1.1,3.8c0.1-1,0.1-2,0.2-3v0C450.9,468.5,454.1,452.6,459,437L459,437z"/>
	<path d="M425.1,331.6c-0.6-0.9-1.9-1.1-2.7-0.4c-0.9,0.6-1.1,1.9-0.4,2.7c12.9,17.5,20.5,38.4,21.8,60.1
		c-0.1,6.1-0.4,12.2-1.1,18.3c-0.1,1.1,0.7,2,1.8,2.1l0.2,0c0.2,0,0.3-0.1,0.5-0.2c0.1,0,0.2,0.2,0.3,0.2l0.2,0c0,0,0.1,0,0.1,0
		c0,0,0.1,0,0.1,0c0.1,0,0.1-0.1,0.2-0.1c0.1,0,0.2,0.1,0.2,0.1l0.2,0c0.1,0,0.2-0.1,0.3-0.2c0.2,0,0.3,0.2,0.5,0.2l0.2,0l0,0
		c1.1-0.1,1.9-1.1,1.8-2.1c-0.6-6.1-0.9-12.2-1.1-18.3c1.3-21.7,8.9-42.6,21.8-60.1c0.6-0.9,0.4-2.1-0.4-2.7
		c-0.9-0.6-2.1-0.4-2.7,0.4c-7.2,9.8-12.8,20.7-16.7,32.2c-0.4,1.3-0.7,2.5-1.1,3.8c0.1-1,0.1-2,0.2-3c1.6-16.2,4.9-32.1,9.7-47.7
		c0.3-1-0.3-2.1-1.3-2.4c-1-0.3-2.1,0.3-2.4,1.3c-3.2,10.2-5.7,20.6-7.5,31.2v-30.6c0-1.1-0.9-2-2-2c-1.1,0-2,0.9-2,2v29.1
		c-1.8-10-4.2-19.9-7.2-29.7c-0.2-0.5-0.5-0.9-1-1.1c-0.5-0.2-1-0.3-1.5-0.1c-0.5,0.2-0.9,0.5-1.1,1c-0.2,0.5-0.3,1-0.1,1.5
		c4.8,15.5,8.1,31.5,9.7,47.7c0.1,1,0.1,2,0.2,3c-0.4-1.3-0.6-2.5-1.1-3.8v0C437.9,352.2,432.3,341.4,425.1,331.6L425.1,331.6z"/>
	<path d="M421.8,502.1c0.6-0.9,0.4-2.1-0.4-2.7c-0.9-0.6-2.1-0.4-2.7,0.4c-7.2,9.8-12.8,20.7-16.7,32.2c-0.4,1.3-0.7,2.6-1.1,3.8
		c0.1-1,0.1-2,0.2-3v0c1.6-16.2,4.9-32.1,9.7-47.7c0.2-0.5,0.1-1-0.1-1.5c-0.2-0.5-0.7-0.8-1.1-1c-0.5-0.2-1-0.1-1.5,0.1
		c-0.5,0.2-0.8,0.7-1,1.2c-3.2,10.2-5.7,20.6-7.5,31.1v-30.5c0-1.1-0.9-2-2-2c-1.1,0-2,0.9-2,2v29.1c-1.8-10-4.2-19.9-7.2-29.7
		c-0.2-0.5-0.5-0.9-1-1.2c-0.5-0.2-1-0.3-1.5-0.1c-0.5,0.2-0.9,0.5-1.1,1c-0.2,0.5-0.3,1-0.1,1.5c4.9,15.5,8.1,31.5,9.7,47.7
		c0.1,1,0.1,2,0.2,3c-0.4-1.3-0.6-2.6-1.1-3.8h0c-3.9-11.5-9.5-22.4-16.7-32.2c-0.6-0.9-1.9-1.1-2.7-0.4c-0.9,0.6-1.1,1.9-0.4,2.7
		c12.9,17.5,20.5,38.4,21.8,60.1c-0.1,6.1-0.4,12.2-1,18.3v0c-0.1,1.1,0.7,2,1.8,2.1l0.2,0c0.2,0,0.3-0.1,0.5-0.2
		c0.1,0,0.2,0.2,0.3,0.2l0.2,0c0,0,0.1,0,0.1,0c0,0,0.1,0,0.1,0c0.1,0,0.1-0.1,0.2-0.1c0.1,0,0.2,0.1,0.2,0.1l0.2,0
		c0.1,0,0.2-0.1,0.3-0.2c0.2,0,0.3,0.2,0.5,0.2l0.2,0h0c1.1-0.1,1.9-1.1,1.8-2.1c-0.6-6.1-0.9-12.2-1-18.3
		C401.4,540.4,408.9,519.6,421.8,502.1L421.8,502.1z"/>
	<path d="M377,379.6c-0.6-0.9-1.9-1.1-2.7-0.4c-0.9,0.6-1.1,1.9-0.4,2.7c12.9,17.5,20.5,38.4,21.8,60.1c-0.1,6.1-0.4,12.2-1,18.3
		c-0.1,1.1,0.7,2,1.8,2.1l0.2,0c0.2,0,0.3-0.1,0.5-0.2c0.1,0,0.2,0.2,0.3,0.2l0.2,0c0,0,0.1,0,0.1,0c0,0,0.1,0,0.1,0
		c0.1,0,0.1-0.1,0.2-0.1c0.1,0,0.2,0.1,0.2,0.1l0.2,0c0.1,0,0.2-0.1,0.3-0.2c0.2,0,0.3,0.2,0.5,0.2l0.2,0h0c1.1-0.1,1.9-1.1,1.8-2.1
		c-0.6-6.1-0.9-12.2-1-18.3v0c1.3-21.7,8.9-42.6,21.8-60.1c0.6-0.9,0.4-2.1-0.4-2.7c-0.9-0.6-2.1-0.4-2.7,0.4
		c-7.2,9.8-12.8,20.7-16.7,32.2c-0.4,1.3-0.7,2.6-1.1,3.8c0.1-1,0.1-2,0.2-3h0c1.6-16.2,4.9-32.1,9.7-47.7c0.2-0.5,0.1-1-0.1-1.5
		c-0.2-0.5-0.7-0.8-1.1-1c-0.5-0.2-1-0.1-1.5,0.1c-0.5,0.2-0.8,0.7-1,1.2c-3.2,10.2-5.7,20.6-7.5,31.1v-30.5c0-1.1-0.9-2-2-2
		c-1.1,0-2,0.9-2,2v29.1v0c-1.8-10-4.2-19.9-7.2-29.7c-0.2-0.5-0.5-0.9-1-1.2c-0.5-0.2-1-0.3-1.5-0.1c-0.5,0.2-0.9,0.5-1.1,1
		c-0.2,0.5-0.3,1-0.1,1.5c4.9,15.5,8.1,31.5,9.7,47.7c0.1,1,0.1,2,0.2,3c-0.4-1.3-0.6-2.6-1.1-3.8h0
		C389.8,400.3,384.2,389.4,377,379.6L377,379.6z"/>
	<path d="M562.5,206.3c-0.9-0.6-2.1-0.4-2.7,0.4c-7.2,9.8-12.8,20.7-16.7,32.2c-0.4,1.3-0.7,2.6-1.1,3.8c0.1-1,0.1-2,0.2-3h0
		c1.6-16.2,4.9-32.1,9.7-47.7c0.2-0.5,0.1-1-0.1-1.5c-0.2-0.5-0.7-0.8-1.1-1c-0.5-0.2-1-0.1-1.5,0.1c-0.5,0.2-0.8,0.7-1,1.2
		c-3.2,10.2-5.7,20.6-7.5,31.2v-30.6c0-1.1-0.9-2-2-2c-1.1,0-2,0.9-2,2v29.1c-1.8-10-4.2-19.9-7.2-29.7c-0.2-0.5-0.5-0.9-1-1.2
		c-0.5-0.2-1-0.3-1.5-0.1c-0.5,0.2-0.9,0.5-1.1,1c-0.2,0.5-0.3,1-0.1,1.5c4.8,15.5,8.1,31.5,9.7,47.7c0.1,1,0.1,2,0.2,3
		c-0.4-1.3-0.6-2.5-1.1-3.8v0c-3.9-11.5-9.5-22.4-16.7-32.2c-0.6-0.9-1.9-1.1-2.7-0.4s-1.1,1.9-0.4,2.7
		c12.9,17.5,20.5,38.4,21.8,60.1c-0.1,6.1-0.4,12.2-1.1,18.3c-0.1,1.1,0.7,2,1.7,2.1l0.2,0c0.2,0,0.3-0.1,0.5-0.2
		c0.1,0,0.2,0.2,0.3,0.2l0.2,0c0,0,0.1,0,0.1,0c0,0,0.1,0,0.1,0c0.1,0,0.1-0.1,0.2-0.1c0.1,0,0.2,0.1,0.3,0.1l0.2,0
		c0.1,0,0.2-0.1,0.3-0.2c0.2,0,0.3,0.2,0.5,0.2l0.2,0v0c1.1-0.1,1.9-1.1,1.8-2.1c-0.6-6.1-0.9-12.1-1.1-18.2
		c1.3-21.7,8.9-42.6,21.8-60.1C563.5,208.1,563.3,206.9,562.5,206.3L562.5,206.3z"/>
	<path d="M514.3,254.3c-0.9-0.6-2.1-0.4-2.7,0.4c-7.2,9.8-12.8,20.7-16.7,32.2c-0.4,1.3-0.7,2.5-1.1,3.8c0.1-1,0.1-2,0.2-3
		c1.6-16.2,4.9-32.1,9.7-47.7c0.2-0.5,0.1-1-0.1-1.5c-0.2-0.5-0.7-0.8-1.1-1c-0.5-0.2-1-0.1-1.5,0.1c-0.5,0.2-0.8,0.7-1,1.1
		c-3.2,10.2-5.7,20.6-7.5,31.2v-30.6c0-1.1-0.9-2-2-2c-1.1,0-2,0.9-2,2v29.1c-1.8-10-4.2-19.9-7.2-29.7c-0.2-0.5-0.5-0.9-1-1.1
		c-0.5-0.2-1-0.3-1.5-0.1c-0.5,0.2-0.9,0.5-1.1,1c-0.2,0.5-0.3,1-0.1,1.5c4.9,15.5,8.1,31.5,9.7,47.7c0.1,1,0.1,2,0.2,3
		c-0.4-1.3-0.6-2.6-1.1-3.8l0,0c-3.9-11.5-9.5-22.4-16.7-32.2c-0.6-0.9-1.9-1.1-2.7-0.4c-0.9,0.6-1.1,1.9-0.4,2.7
		c12.9,17.5,20.5,38.4,21.8,60.1c-0.1,6.1-0.4,12.2-1.1,18.2v0c-0.1,1.1,0.7,2,1.8,2.1l0.2,0c0.2,0,0.3-0.1,0.5-0.2
		c0.1,0,0.2,0.2,0.3,0.2l0.2,0c0,0,0.1,0,0.1,0c0,0,0.1,0,0.1,0c0.1,0,0.1-0.1,0.2-0.1c0.1,0,0.2,0.1,0.2,0.1l0.2,0
		c0.1,0,0.2-0.1,0.3-0.2c0.2,0,0.3,0.2,0.5,0.2l0.2,0l0,0c1.1-0.1,1.9-1.1,1.8-2.1c-0.6-6.1-0.9-12.2-1.1-18.3v0
		c1.3-21.7,8.9-42.6,21.8-60.1C515.4,256.2,515.2,255,514.3,254.3L514.3,254.3z"/>
	<path d="M469.9,134.6c-0.6-0.9-1.9-1.1-2.7-0.4c-0.9,0.6-1.1,1.9-0.4,2.7c12.9,17.5,20.5,38.4,21.8,60.1
		c-0.1,6.1-0.4,12.2-1.1,18.2c-0.1,1.1,0.7,2,1.8,2.1l0.2,0c0.2,0,0.3-0.1,0.5-0.2c0.1,0,0.2,0.2,0.3,0.2l0.2,0c0,0,0.1,0,0.1,0
		c0,0,0.1,0,0.1,0c0.1,0,0.1-0.1,0.2-0.1c0.1,0,0.2,0.1,0.2,0.1l0.2,0c0.1,0,0.2-0.1,0.3-0.2c0.2,0,0.3,0.2,0.5,0.2l0.2,0l0,0
		c1.1-0.1,1.9-1.1,1.8-2.1c-0.6-6.1-0.9-12.2-1.1-18.3c1.3-21.7,8.9-42.6,21.8-60.1c0.6-0.9,0.4-2.1-0.4-2.7
		c-0.9-0.6-2.1-0.4-2.7,0.4c-7.2,9.8-12.8,20.7-16.7,32.2c-0.4,1.3-0.7,2.5-1.1,3.8c0.1-1,0.1-2,0.2-3v0c1.6-16.2,4.9-32.1,9.7-47.7
		c0.2-0.5,0.1-1-0.1-1.5c-0.2-0.5-0.7-0.8-1.1-1c-0.5-0.2-1-0.1-1.5,0.1c-0.5,0.2-0.8,0.7-1,1.1c-3.2,10.2-5.7,20.6-7.5,31.2v-30.6
		c0-1.1-0.9-2-2-2c-1.1,0-2,0.9-2,2v29.1c-1.8-10-4.2-19.9-7.2-29.7c-0.2-0.5-0.5-0.9-1-1.1c-0.5-0.2-1-0.3-1.5-0.1
		c-0.5,0.2-0.9,0.5-1.1,1c-0.2,0.5-0.3,1-0.1,1.5c4.9,15.5,8.1,31.5,9.7,47.7c0.1,1,0.1,2,0.2,3c-0.4-1.3-0.6-2.6-1.1-3.8h0
		C482.8,155.3,477.1,144.4,469.9,134.6L469.9,134.6z"/>
	<path d="M562.5,451.3c-0.9-0.6-2.1-0.4-2.7,0.4c-7.2,9.8-12.8,20.7-16.7,32.2c-0.4,1.3-0.7,2.6-1.1,3.8c0.1-1,0.1-2,0.2-3l0,0
		c1.6-16.2,4.9-32.1,9.7-47.7c0.2-0.5,0.1-1-0.1-1.5c-0.2-0.5-0.6-0.8-1.1-1c-0.5-0.2-1-0.1-1.5,0.1c-0.5,0.2-0.8,0.7-1,1.1
		c-3.2,10.2-5.7,20.6-7.5,31.2v-30.6c0-1.1-0.9-2-2-2c-1.1,0-2,0.9-2,2v29.1v0c-1.8-10-4.2-19.9-7.2-29.7c-0.2-0.5-0.5-0.9-1-1.1
		c-0.5-0.2-1-0.3-1.5-0.1c-0.5,0.2-0.9,0.5-1.1,1c-0.2,0.5-0.3,1-0.1,1.5c4.8,15.5,8.1,31.5,9.7,47.7c0.1,1,0.1,2,0.2,3
		c-0.4-1.3-0.6-2.5-1.1-3.8c-3.9-11.5-9.5-22.4-16.7-32.2c-0.6-0.9-1.9-1.1-2.7-0.4c-0.9,0.6-1.1,1.9-0.4,2.7
		c12.9,17.5,20.5,38.4,21.8,60.1c-0.1,6.1-0.4,12.2-1.1,18.3v0c-0.1,1.1,0.7,2,1.7,2.1l0.2,0c0.2,0,0.3-0.1,0.5-0.2
		c0.1,0,0.2,0.2,0.3,0.2l0.2,0c0,0,0.1,0,0.1,0c0,0,0.1,0,0.1,0c0.1,0,0.1-0.1,0.2-0.1c0.1,0,0.2,0.1,0.3,0.1l0.2,0
		c0.1,0,0.2-0.1,0.3-0.2c0.2,0,0.3,0.2,0.5,0.2l0.2,0v0c1.1-0.1,1.9-1.1,1.8-2.1c-0.6-6.1-0.9-12.1-1.1-18.2v0
		c1.3-21.7,8.9-42.6,21.8-60.1C563.5,453.1,563.3,451.9,562.5,451.3L562.5,451.3z"/>
	<path d="M562.5,331.1c-0.9-0.6-2.1-0.4-2.7,0.4c-7.2,9.8-12.8,20.7-16.7,32.2c-0.4,1.3-0.7,2.6-1.1,3.8c0.1-1,0.1-2,0.2-3h0
		c1.6-16.2,4.9-32.1,9.7-47.7c0.2-0.5,0.1-1-0.1-1.5c-0.2-0.5-0.7-0.8-1.1-1c-0.5-0.2-1-0.1-1.5,0.1c-0.5,0.2-0.8,0.7-1,1.1
		c-3.2,10.2-5.7,20.6-7.5,31.2v-30.6c0-1.1-0.9-2-2-2c-1.1,0-2,0.9-2,2v29.1c-1.8-10-4.2-19.9-7.2-29.7c-0.2-0.5-0.5-0.9-1-1.1
		c-0.5-0.2-1-0.3-1.5-0.1c-0.5,0.2-0.9,0.5-1.1,1c-0.2,0.5-0.3,1-0.1,1.5c4.8,15.5,8.1,31.5,9.7,47.7c0.1,1,0.1,2,0.2,3
		c-0.4-1.3-0.6-2.5-1.1-3.8v0c-3.9-11.5-9.5-22.4-16.7-32.2c-0.6-0.9-1.9-1.1-2.7-0.4c-0.9,0.6-1.1,1.9-0.4,2.7
		c12.9,17.5,20.5,38.4,21.8,60.1c-0.1,6.1-0.4,12.2-1.1,18.3c-0.1,1.1,0.7,2,1.7,2.1l0.2,0c0.2,0,0.3-0.1,0.5-0.2
		c0.1,0,0.2,0.2,0.3,0.2l0.2,0c0,0,0.1,0,0.1,0c0,0,0.1,0,0.1,0c0.1,0,0.1-0.1,0.2-0.1c0.1,0,0.2,0.1,0.3,0.1l0.2,0
		c0.1,0,0.2-0.1,0.3-0.2c0.2,0,0.3,0.2,0.5,0.2l0.2,0v0c1.1-0.1,1.9-1.1,1.8-2.1c-0.6-6.1-0.9-12.1-1.1-18.2v0
		c1.3-21.7,8.9-42.6,21.8-60.1C563.5,333,563.3,331.8,562.5,331.1L562.5,331.1z"/>
	<path d="M511.6,499.7c-7.2,9.8-12.8,20.7-16.7,32.2c-0.4,1.3-0.7,2.5-1.1,3.8c0.1-1,0.1-2,0.2-3v0c1.6-16.2,4.9-32.1,9.7-47.7
		c0.2-0.5,0.1-1-0.1-1.5c-0.2-0.5-0.7-0.8-1.1-1c-0.5-0.2-1-0.1-1.5,0.1c-0.5,0.2-0.8,0.7-1,1.2c-3.2,10.2-5.7,20.6-7.5,31.2v-30.6
		v0c0-1.1-0.9-2-2-2c-1.1,0-2,0.9-2,2v29.1c-1.8-10-4.2-19.9-7.2-29.7c-0.2-0.5-0.5-0.9-1-1.2c-0.5-0.2-1-0.3-1.5-0.1
		c-0.5,0.2-0.9,0.5-1.1,1c-0.2,0.5-0.3,1-0.1,1.5c4.9,15.5,8.1,31.5,9.7,47.7c0.1,1,0.1,2,0.2,3c-0.4-1.3-0.6-2.6-1.1-3.8h0
		c-3.9-11.5-9.5-22.4-16.7-32.2c-0.6-0.9-1.9-1.1-2.7-0.4c-0.9,0.6-1.1,1.9-0.4,2.7c12.9,17.5,20.5,38.4,21.8,60.1
		c-0.1,6.1-0.4,12.2-1.1,18.2c-0.1,1.1,0.7,2,1.8,2.1l0.2,0c0.2,0,0.3-0.1,0.5-0.2c0.1,0,0.2,0.2,0.3,0.2l0.2,0c0,0,0.1,0,0.1,0
		c0,0,0.1,0,0.1,0c0.1,0,0.1-0.1,0.2-0.1c0.1,0,0.2,0.1,0.2,0.1l0.2,0c0.1,0,0.2-0.1,0.3-0.2c0.2,0,0.3,0.2,0.5,0.2l0.2,0l0,0
		c1.1-0.1,1.9-1.1,1.8-2.1c-0.6-6.1-0.9-12.2-1.1-18.3c1.3-21.7,8.9-42.6,21.8-60.1c0.6-0.9,0.4-2.1-0.4-2.7
		C513.5,498.7,512.2,498.9,511.6,499.7L511.6,499.7z"/>
	<path d="M514.3,379.2c-0.9-0.6-2.1-0.4-2.7,0.4c-7.2,9.8-12.8,20.7-16.7,32.2c-0.4,1.3-0.7,2.5-1.1,3.8c0.1-1,0.1-2,0.2-3v0
		c1.6-16.2,4.9-32.1,9.7-47.7c0.2-0.5,0.1-1-0.1-1.5c-0.2-0.5-0.7-0.8-1.1-1c-0.5-0.2-1-0.1-1.5,0.1c-0.5,0.2-0.8,0.7-1,1.2
		c-3.2,10.2-5.7,20.6-7.5,31.2v-30.6c0-1.1-0.9-2-2-2c-1.1,0-2,0.9-2,2v29.1c-1.8-10-4.2-19.9-7.2-29.7c-0.2-0.5-0.5-0.9-1-1.2
		c-0.5-0.2-1-0.3-1.5-0.1c-0.5,0.2-0.9,0.5-1.1,1c-0.2,0.5-0.3,1-0.1,1.5c4.9,15.5,8.1,31.5,9.7,47.7c0.1,1,0.1,2,0.2,3
		c-0.4-1.3-0.6-2.6-1.1-3.8h0c-3.9-11.5-9.5-22.4-16.7-32.2c-0.6-0.9-1.9-1.1-2.7-0.4c-0.9,0.6-1.1,1.9-0.4,2.7
		c12.9,17.5,20.5,38.4,21.8,60.1c-0.1,6.1-0.4,12.2-1.1,18.2c-0.1,1.1,0.7,2,1.8,2.1l0.2,0c0.2,0,0.3-0.1,0.5-0.2
		c0.1,0,0.2,0.2,0.3,0.2l0.2,0c0,0,0.1,0,0.1,0c0,0,0.1,0,0.1,0c0.1,0,0.1-0.1,0.2-0.1c0.1,0,0.2,0.1,0.2,0.1l0.2,0
		c0.1,0,0.2-0.1,0.3-0.2c0.2,0,0.3,0.2,0.5,0.2l0.2,0l0,0c1.1-0.1,1.9-1.1,1.8-2.1c-0.6-6.1-0.9-12.2-1.1-18.3
		c1.3-21.7,8.9-42.6,21.8-60.1C515.4,381.1,515.2,379.8,514.3,379.2L514.3,379.2z"/>
</g>
</svg>
