<?xml version="1.0" encoding="utf-8"?>
<!-- Generator: Adobe Illustrator 26.1.0, SVG Export Plug-In . SVG Version: 6.00 Build 0)  -->
<svg version="1.1" id="Layer_1" xmlns="http://www.w3.org/2000/svg" xmlns:xlink="http://www.w3.org/1999/xlink" x="0px" y="0px"
	 viewBox="0 0 700 700" style="enable-background:new 0 0 700 700;" xml:space="preserve">
<style type="text/css">
	.st0{stroke:#000000;stroke-width:2;stroke-miterlimit:10;}
</style>
<g>
	<path class="st0" d="M137.8,404.6c-0.7,0-1.4-0.3-2-0.8c-8.1-8.1-12.6-19-12.6-30.5c0-23.8,19.3-43.1,43.1-43.1
		c2.4,0,4.8,0.2,7.4,0.7c1.1-36.5,31.1-65.9,67.9-65.9c3.6,0,7.3,0.3,11.1,1c1-61.9,51.7-112,113.8-112c52.2,0,97.1,34.9,110.1,85.2
		c3.5-0.5,7.3-1,11.3-1c49.1,0,89,39.9,89,89c0,28.1-13.5,54.9-36.1,71.6c-1.2,0.9-3,0.7-3.9-0.6c-0.9-1.2-0.7-3,0.6-3.9
		c21.2-15.7,33.9-40.8,33.9-67.1c0-46-37.4-83.4-83.4-83.4c-4.5,0-9,0.7-13,1.3c-1.5,0.2-2.8-0.7-3.2-2.1
		c-11.5-49.1-54.8-83.4-105.2-83.4c-59.7,0-108.2,48.6-108.2,108.2l0.1,1.6c0,0.9-0.4,1.7-1,2.2c-0.7,0.5-1.5,0.7-2.4,0.6
		c-4.7-1-9-1.5-13.4-1.5c-34.4,0-62.3,27.9-62.3,62.3c0.1,0.7,0.1,1.1,0.2,1.4c0,0.9-0.4,1.7-1.1,2.3c-0.7,0.5-1.6,0.7-2.5,0.5
		c-3.6-1-6.6-1.4-9.6-1.4c-20.7,0-37.5,16.8-37.5,37.5c0,10,3.9,19.4,11,26.5c1.1,1.1,1.1,2.9,0,4
		C139.2,404.4,138.5,404.6,137.8,404.6L137.8,404.6z"/>
	<path class="st0" d="M287.5,289.8c-0.7,0-1.4-0.3-2-0.8c-11.8-11.8-27.4-18.2-44.1-18.2c-1.5,0-2.8-1.3-2.8-2.8s1.3-2.8,2.8-2.8
		c18.1,0,35.2,7.1,48,19.9c1.1,1.1,1.1,2.9,0,4C289,289.6,288.3,289.8,287.5,289.8L287.5,289.8z"/>
	<path class="st0" d="M406.6,300.9c-0.3,0-0.6-0.1-1-0.2c-1.5-0.5-2.2-2.1-1.7-3.6c12.7-35.2,46.4-58.8,83.8-58.8
		c1.5,0,2.8,1.3,2.8,2.8s-1.3,2.8-2.8,2.8c-35.1,0-66.6,22.2-78.5,55.1C408.8,300.2,407.8,300.9,406.6,300.9L406.6,300.9z"/>
	<path class="st0" d="M508,435.3H168.3c-1.5,0-2.8-1.3-2.8-2.8c0-1.5,1.3-2.8,2.8-2.8H508c1.5,0,2.8,1.3,2.8,2.8
		C510.8,434,509.5,435.3,508,435.3z"/>
	<path class="st0" d="M508,490.6H168.3c-1.5,0-2.8-1.3-2.8-2.8c0-1.5,1.3-2.8,2.8-2.8H508c1.5,0,2.8,1.3,2.8,2.8
		C510.8,489.3,509.5,490.6,508,490.6z"/>
	<path class="st0" d="M508,545.8H168.3c-1.5,0-2.8-1.3-2.8-2.8c0-1.5,1.3-2.8,2.8-2.8H508c1.5,0,2.8,1.3,2.8,2.8
		C510.8,544.6,509.5,545.8,508,545.8z"/>
</g>
</svg>
