<?xml version="1.0" encoding="utf-8"?>
<!-- Generator: Adobe Illustrator 26.1.0, SVG Export Plug-In . SVG Version: 6.00 Build 0)  -->
<svg version="1.1" id="Layer_1" xmlns="http://www.w3.org/2000/svg" xmlns:xlink="http://www.w3.org/1999/xlink" x="0px" y="0px"
	 viewBox="0 0 700 700" style="enable-background:new 0 0 700 700;" xml:space="preserve">
<style type="text/css">
	.st0{stroke:#000000;stroke-width:3;stroke-miterlimit:10;}
</style>
<g>
	<path class="st0" d="M237.2,280h111.3c36.5,0,66.3-29.7,66.3-66.3c0-36.5-29.7-66.3-66.3-66.3c-1.6,0-2.9,1.3-2.9,2.9
		c0,1.6,1.3,2.9,2.9,2.9c33.3,0,60.4,27.1,60.4,60.4c0,33.3-27.1,60.4-60.4,60.4l-111.3,0c-1.6,0-2.9,1.3-2.9,2.9
		S235.6,280,237.2,280L237.2,280z"/>
	<path class="st0" d="M586.2,282.4c0-36.5-29.7-66.3-66.3-66.3c-1.6,0-2.9,1.3-2.9,2.9s1.3,2.9,2.9,2.9c33.3,0,60.4,27.1,60.4,60.4
		c0,33.3-27.1,60.4-60.4,60.4l-403.3,0c-1.6,0-2.9,1.3-2.9,2.9s1.3,2.9,2.9,2.9H520C556.5,348.7,586.2,318.9,586.2,282.4
		L586.2,282.4z"/>
	<path class="st0" d="M520,408.8H237.2c-1.6,0-2.9,1.3-2.9,2.9s1.3,2.9,2.9,2.9H520c33.3,0,60.4,27.1,60.4,60.4
		c0,33.3-27.1,60.4-60.4,60.4c-1.6,0-2.9,1.3-2.9,2.9c0,1.6,1.3,2.9,2.9,2.9c36.6,0,66.3-29.7,66.3-66.3
		C586.2,438.5,556.5,408.8,520,408.8z"/>
</g>
</svg>
