<?xml version="1.0" encoding="utf-8"?>
<!-- Generator: Adobe Illustrator 26.1.0, SVG Export Plug-In . SVG Version: 6.00 Build 0)  -->
<svg version="1.1" id="Layer_1" xmlns="http://www.w3.org/2000/svg" xmlns:xlink="http://www.w3.org/1999/xlink" x="0px" y="0px"
	 viewBox="0 0 1366 299" style="enable-background:new 0 0 1366 299;" xml:space="preserve">
<style type="text/css">
	.st0{display:none;}
	.st1{display:inline;opacity:0.43;enable-background:new    ;}
	.st2{fill:#FEFEFE;}
	.st3{fill:#BB2E3C;}
	.st4{fill:#D2323D;}
	.st5{fill:#3E3E40;}
	.st6{fill:#D1D1D2;}
	.st7{fill:#B1BDBB;}
</style>
<g id="Layer_3" class="st0">
	<rect y="-469" class="st1" width="1368" height="769"/>
</g>
<g>
	<path class="st2" d="M24.6,217.2c-3.7,1.8-4.9-0.7-5.6-3.4c-1-3.8,0.2-5.4,4.1-5.8c1.2-1.7,3.8-0.6,4.9-2.5c-1.7-0.3-3.4-0.7-5.1-1
		c-2.5-0.4-4.7-1.2-4.7-4.3c-1.5-3.4-0.8-6.9-0.6-10.4c-0.7-4.2,1.6-6.2,5.4-6.9c2.6-0.5,5.2-1.3,7.9-1.2c0.1-2.9,0.2-5.8,0.2-8.7
		c0-1.4-0.3-3,1.8-3.3l0.3-0.1c10.9-8.3,22.3-16,34.1-23.1c10.6-6.4,21.3-12.6,32.7-17.3c1.1-0.6,2.1-1.2,3.2-1.7
		c21.6-10.1,44.2-17.9,66.3-26.6c9.4-3.7,18.8-7.3,28.1-11.3c3.2-1.4,5.5-4.3,9.1-5c31.6-5.9,63.5-9,95.7-8
		c8.8,0.3,17.5,0.6,26.2,2.2c11,7.7,22,15.4,32.9,23.2c10.1,7.1,20.2,14.3,30.2,21.6c1.6,1.1,4.2,1.7,3.9,4.6
		c13.8,1.4,27.6,3.2,41.4,4.1c29.8,2,59.8,2.8,89.5,6.7c10.6,1.4,21.4,2.2,31.2,7.3c2.4-1.9,4.8-0.5,6.6,0.7
		c6.4,4.2,10.3,18.9,7.2,25.9c-0.3,2.6,0.4,5.1,0.9,7.7c2.9,0.5,5.7,1,8.3,2.6c11,1.6,11.8,2.6,11.8,13.8c0,1.1-0.1,2.2-0.1,3.2
		c0,2.2-1.1,3.5-3.3,3.8c-2.6,0.4-5.3,0.8-7.9,1.3c-1.5,6.4-6.3,10.9-9.8,16.1c0.6,2.9,3.2,6.7-1.6,8c-9.1,2.3-18.5,3.4-28,4
		c-3.2,0.2-4.8-1.3-5.2-4.3c-0.2-1.2-0.4-2.4-0.5-3.6c-0.1-1.3-0.7-1.9-2-1.8c-1.2,0.1-2.5-0.2-3,1.4c-0.3,1-0.5,2.1-0.8,3.1
		c-5.5,19-22.6,32.8-41.9,33.9c-20.7,1.2-39.2-10.3-47-29c-1.2-2.9-0.8-7.3-3.4-8.6c-2.7-1.4-6.6-0.4-10-0.4
		c-0.4,3.8-2.8,4.2-6.2,4.2c-42.7-0.1-85.5-0.1-128.2-0.1c-27.2,0-54.5,0-81.7,0c-2,0-3.8,0.1-4.3-2.4c-3.4,0-6.8,0.4-10.1,0
		c-3-0.4-3.8,1-4.6,3.4c-6.8,19.2-25.6,31.9-45.9,31.2c-20.4-0.7-38.3-14.7-43.9-34.1c-0.7-2.6,0-6.2-2.1-7.5
		c-2.2-1.3-5.5-0.8-8.3-1.1c0.3,2.8-1.2,3.2-3.6,3c-8.6-0.7-17.1-1.1-25.7-1.7c-8.3-0.6-16.6-1.1-24.2-4.9
		C34.4,214.5,29.7,216.9,24.6,217.2z"/>
	<path class="st3" d="M39.4,213.9c7.6,3.8,15.9,4.4,24.2,4.9c8.6,0.6,17.1,1,25.7,1.7c2.4,0.2,3.9-0.2,3.6-3
		c0.4-6.3,1.6-12.5,3.2-18.6c4.9-18.5,15.4-31.6,35.1-35.4c11.5-2.2,23-1.7,34.6,0.1c5.9,0.9,11.5,2.7,16.3,6.5
		c11.9,9.3,18.5,22,22.4,36.1c1.3,4.6,3.1,5.7,7.6,5.7c65.5-0.2,131-0.1,196.5-0.1c6.5,0,13-0.1,19.4,0c2.2,0,3.3-0.5,3.9-2.8
		c1.5-5.4,3.3-10.8,5.3-16.1c2.9-7.5,6.5-14.3,13.2-19.5c8-6.2,16.6-10.6,26.6-11.6c9.8-1,19.8-0.6,29.2,2.5
		c11.1,3.6,18.3,12.1,23.9,21.9c5.3,9.3,8.6,19.4,10.8,29.9c0.5,2.6,1.5,3.7,4.4,3.9c7.2,0.5,14.4,1.5,21.6,2.6
		c2,0.3,3.3-0.1,4.7-1.2c3.5-5.2,8.2-9.7,9.8-16.1c-4.1,0-8.3,0-12.4-0.1c-5.8-0.2-11.6,0.2-17.3,0.9c-2.8,0.3-4-0.9-4.1-3.5
		c-0.4-5.6-0.6-11.3-1.1-16.9c-0.2-2.5,0.8-3,3.2-3.3c6.2-0.8,12.4-0.3,18.6-0.5c1.6-0.1,3.3,0.2,4.4-1.3c-0.4-2.5-1.2-5-0.9-7.7
		c-1.3-2.6-0.8-5.7-2.4-8.1c-1.1,0-2,0.4-3.2,0.2c-8.2-1.5-16.5-1.8-24.8-2.7c-6.3-0.6-12.5-1.4-18.8-1.8c-9.7-0.6-19.4-2.1-29.2-3
		c-10.4-1-20.9-1.7-31.3-2.5c-15.3-1.1-30.4-3.4-45.8-3.2c-3.8,0.1-6.9-0.5-7.5-4.9l-0.1,0.1c0,2,0.6,4.1-2.8,4.1
		c-6.7-0.1-13.4,0.2-20.2,0.6c-11.7,0.8-23.4-0.1-35.1,0.8c-14.4,1-28.8-0.1-43.2,0.8c-11.7,0.8-23.5,0.2-35.2,0.1
		c-2.4,0-4.9-0.2-7.7-0.3c1-1.4,1.7-2.4,2.4-3.4c-6.2,0.5-12.5,0.9-18.7,1.4c-0.1,0.9,1.1,2-1,2.3c-6.8,1.2-8.9,0-10.5-6.8
		c-0.4-1.5-0.7-3.1-1-4.6c-0.5,1.1-0.6,2.1-0.4,3.2c0.2,1.7,0.4,3.5,1,5.1c0.9,2.5,0.1,3.1-2.3,3.1c-20.2-0.1-40.4-0.1-60.6-1.5
		c-14.6-1-29.2-1.5-43.6-4.3c-5.7-1.1-11.5-2.2-16.4-6c-5-3.7-9.4-7.9-13.5-12.6c-11.5,4.7-22.2,10.9-32.7,17.3
		c-11.7,7.1-23.1,14.8-34,23.1c4.7,0.3,9.3,0.7,14,1c2.3,0.1,3.8,0.8,3.6,3.8c-2.2-2.7-5-2.7-7.7-3.1c-3.4-0.4-6.7-1-10.1-1.6
		c-2.1,0.3-1.7,1.9-1.8,3.3c-0.1,2.9-0.2,5.8-0.2,8.7c1.2,0.8,1.3,3.2,3.5,2.6c6.3-0.7,12.6,0.6,18.9,0.7c2.3,0,2.2,1.6,2.1,3.1
		c-0.5,5.9-1,11.8-0.9,17.7c0,1.3-0.4,2.8-1.9,2.5c-5.9-1-12.1,0-17.8-2.2c-1.9,0-3.7,0.1-5.6,0.1C31.9,209.7,35.9,211.5,39.4,213.9
		z"/>
	<path class="st4" d="M267,149.6c-0.7,1-1.4,1.9-2.4,3.4c2.8,0.1,5.3,0.3,7.7,0.3c11.7,0,23.5,0.6,35.2-0.1
		c14.4-1,28.9,0.2,43.2-0.8c11.7-0.8,23.5,0,35.1-0.8c6.7-0.5,13.4-0.7,20.2-0.6c3.4,0.1,2.7-2.1,2.8-4.1c-0.2-0.3-0.4-0.6-0.6-0.9
		c0,0,0.2-0.1,0.3-0.2c0.1,0.4,0.2,0.7,0.4,1.1c0.7,4.5,3.8,5,7.5,4.9c15.3-0.2,30.5,2.1,45.8,3.2c10.4,0.8,20.9,1.5,31.3,2.5
		c9.7,0.9,19.4,2.4,29.2,3c6.3,0.4,12.6,1.2,18.8,1.8c8.3,0.8,16.6,1.2,24.8,2.7c1.2,0.2,2.1-0.2,3.2-0.2
		c-1.7-7.5-5.7-13.5-11.5-18.5c-9.8-5.1-20.6-5.9-31.2-7.3c-29.7-3.9-59.6-4.7-89.5-6.7c-13.8-0.9-27.6-2.7-41.4-4.1
		c-1.8,0.2-3.8,0.3-5.5,0.8c-8.9,2.7-15.9,0.1-21.6-7c-0.3,0-0.5-0.2-0.5-0.5c-3.8-3.3-7.6-6.7-10.6-10.8l0.1,0
		c-0.6,0-0.9-0.3-0.9-0.9l0,0.1c-0.6,0-0.9-0.3-0.9-0.9l0,0.1c-1.3-0.4-2.1-1.1-2.5-2.5l0.1,0c-0.8,0.1-1.2-0.3-1.5-0.9
		c-0.3-0.3-0.6-0.6-0.8-0.8c-0.6-0.3-1.1-0.7-1-1.5l0.1,0.1c-0.6,0.1-0.9-0.2-0.9-0.9l0,0.1c-1.1,0-1.7-0.6-1.7-1.7l0.1,0.1
		c-1.1,0-1.7-0.5-1.7-1.7l0.1,0c-0.7,0.1-1-0.2-0.9-0.9l0,0.1c-0.7,0.1-1-0.2-0.8-0.9l0,0.1c-0.7,0.1-1-0.2-0.9-0.9l0.1,0.1
		c-0.9,0.3-1.2-0.3-1.6-0.9l0,0c-0.6-0.4-1.2-0.7-0.9-1.6l0.1,0.1c-0.7,0.1-1-0.1-0.9-0.9l0,0.1c-0.9,0.3-1.2-0.3-1.6-0.9l0,0
		c-0.6-0.6-1.1-1.1-1.7-1.7c0,0,0,0,0,0c-0.3-0.3-0.6-0.6-0.9-0.9c-0.2-0.2-0.5-0.5-0.7-0.7c-3-3.1-7.6-5.2-7.1-10.7
		c-8.6-1.6-17.4-2-26.2-2.2c-32.2-1-64.1,2.1-95.7,8c-3.7,0.7-5.9,3.6-9.1,5c-9.3,4.1-18.7,7.7-28.1,11.3
		c-22.2,8.7-44.7,16.5-66.3,26.6c-1.1,0.5-2.1,1.1-3.2,1.7c4,4.7,8.5,8.8,13.5,12.6c5,3.8,10.7,4.9,16.4,6c14.4,2.8,29,3.3,43.6,4.3
		c20.2,1.4,40.4,1.4,60.6,1.5c2.4,0,3.2-0.6,2.3-3.1c-0.6-1.6-0.8-3.4-1-5.1c-0.1-1,0-2.1,0.4-3.2c0.3,1.5,0.6,3.1,1,4.6
		c1.7,6.9,3.7,8.1,10.5,6.8c2-0.4,0.9-1.5,1-2.3c-1.7,0.1-3.4,0.4-5.1,0.3c-1.8-0.1-3-1.1-2.9-3.1c0-1.8,1.2-2.7,2.8-2.8
		c1.7-0.1,3.4,0.1,5.2,0.2c1.3-3.1,4.4-2.7,6.9-3.2c4.7-1,9.7,1.2,11.2,4.6c1.2,0.5,2.9,0,3.9,1.6C269.4,149.6,268,149.1,267,149.6z
		 M402.4,138.7c0.1,0.1,0.2,0.3,0.3,0.4C402.6,139,402.5,138.9,402.4,138.7c-0.2-0.1-0.3-0.2-0.4-0.3
		C402.1,138.5,402.3,138.6,402.4,138.7z M404.8,140.3c0.3,0.3,0.5,0.5,0.8,0.8c0.3,0.3,0.5,0.5,0.8,0.8c0.6,0.4,0.8,1,0.8,1.6
		c0.1,0.1,0.2,0.3,0.3,0.4c-0.1-0.1-0.3-0.2-0.4-0.3c-0.6-0.4-0.8-1-0.8-1.6c-0.3-0.3-0.5-0.5-0.8-0.8
		C405.3,140.9,405,140.7,404.8,140.3c-0.2,0-0.3-0.2-0.4-0.3C404.6,140.1,404.7,140.2,404.8,140.3z M399.1,137.1
		c-3.4-0.6-6.7-1.6-9.7-3.3c-3.8,0.3-7.5-0.7-12.4-1.2c5.5-0.6,8.5-0.3,12.5,1.2C393,133.9,396.4,134.6,399.1,137.1
		c0.4,0,0.8,0.2,1.1,0.3c-0.1,0.1-0.2,0.3-0.2,0.3C399.7,137.5,399.4,137.3,399.1,137.1z M271.3,130.3c0,0.3,0,0.6,0,0.8
		c-3.8,0-7.6,0-11.3,0c-29.6-0.1-59.1,0.9-88.7-0.5c-5.8-0.3-11.7-0.3-17.1-2.5c-5.3-2.1-6.1-6.1-2.2-10c2.2-2.2,4.8-3.9,7.6-5.4
		c21.6-11.6,44.7-19,68.7-23.1c28.2-4.9,56.9-5.6,85.5-5.2c7.9,0.1,14.1,2.9,19.4,8.4c6.4,6.6,12.9,13.1,19.3,19.7
		c4.5,4.6,9.1,9.3,13.6,13.9c2,2,1.7,3.3-1.2,3.6c-2.1,0.2-4.3,0.4-6.5,0.4C329.4,130.3,300.4,130.3,271.3,130.3z"/>
	<path class="st5" d="M571.7,221.3c-1.4,1.1-2.7,1.5-4.7,1.2c-7.2-1.2-14.4-2.1-21.6-2.6c-3-0.2-3.9-1.4-4.4-3.9
		c-2.2-10.5-5.5-20.6-10.8-29.9c-5.6-9.8-12.7-18.3-23.9-21.9c-9.4-3.1-19.4-3.4-29.2-2.5c-10,1-18.7,5.4-26.6,11.6
		c-6.6,5.2-10.3,12-13.2,19.5c-2,5.3-3.8,10.7-5.3,16.1c-0.7,2.3-1.7,2.9-3.9,2.8c-6.5-0.1-13,0-19.4,0c-65.5,0-131-0.1-196.5,0.1
		c-4.5,0-6.4-1.1-7.6-5.7c-3.9-14.1-10.5-26.8-22.4-36.1c-4.8-3.8-10.4-5.6-16.3-6.5c-11.5-1.8-23.1-2.3-34.6-0.1
		c-19.7,3.8-30.2,16.9-35.1,35.4c-1.6,6.1-2.8,12.3-3.2,18.6c2.8,0.3,6.1-0.2,8.3,1.1c2.1,1.3,1.4,4.9,2.1,7.5
		c5.6,19.4,23.4,33.4,43.9,34.1c20.3,0.7,39.1-12,45.9-31.2c0.9-2.4,1.6-3.8,4.6-3.4c3.3,0.4,6.7,0,10.1,0c0-2.4,0-4.9,0-7.3
		c-0.2-0.2-0.4-0.4-0.5-0.6c0-0.1,0.1-0.2,0.1-0.3c0.1,0.3,0.2,0.6,0.4,0.9c1.8,0,3.5,0.1,5.3,0.1c70,0,140,0,209.9,0
		c5.7,0,5.7,0,5.2,5.5c3.4,0,7.2-0.9,10,0.4c2.6,1.3,2.2,5.7,3.4,8.6c7.8,18.7,26.3,30.2,47,29c19.3-1.1,36.4-14.9,41.9-33.9
		c0.3-1,0.5-2.1,0.8-3.1c0.4-1.6,1.8-1.3,3-1.4c1.4-0.1,1.9,0.5,2,1.8c0.1,1.2,0.3,2.4,0.5,3.6c0.4,3,2.1,4.5,5.2,4.3
		c9.4-0.5,18.8-1.6,28-4C574.9,228,572.3,224.2,571.7,221.3z M148.9,247.5c-19.2,0.1-34.7-15.1-34.9-34.1
		c-0.1-19.1,15.5-34.9,34.6-34.9c19,0,34.7,15.4,34.9,34.2C183.6,232,168.2,247.4,148.9,247.5z M485.2,180.6
		c19.2,0,34.6,15.1,34.7,34.1c0.1,19.2-15.4,34.8-34.5,34.9c-19.2,0-34.7-15.5-34.7-34.7C450.8,195.7,466,180.6,485.2,180.6z"/>
	<path class="st3" d="M428.3,223.7c0.5-5.5,0.5-5.5-5.2-5.5c-70,0-140,0-209.9,0c-1.8,0-3.5,0-5.3-0.1l0,0c0,2.4,0,4.9,0,7.3
		c0.5,2.5,2.3,2.4,4.3,2.4c27.2,0,54.5,0,81.7,0c42.7,0,85.5,0,128.2,0.1C425.4,227.9,427.8,227.5,428.3,223.7z"/>
	<path class="st5" d="M572.7,180.4c-1.1,1.6-2.8,1.3-4.4,1.3c-6.2,0.2-12.4-0.3-18.6,0.5c-2.4,0.3-3.4,0.8-3.2,3.3
		c0.5,5.6,0.7,11.3,1.1,16.9c0.2,2.6,1.3,3.8,4.1,3.5c5.7-0.7,11.5-1.1,17.3-0.9c0-0.5,0.2-1.1,0-1.6c-1.3-3.2-0.2-4.3,3.2-4.1
		c4,0.2,8.1-0.2,12.1,0.1c3.4,0.3,3.6-1.4,3.6-4.1c0-2.6-0.1-4.3-3.6-4.1c-5,0.3-10-0.1-14.9,0.1c-4,0.2-3.4-2.8-3.7-4.9
		c-0.4-3.1,2.2-1.5,3.4-1.6c4-0.2,8.1-0.1,11.8-2C578.4,181.4,575.6,180.9,572.7,180.4z"/>
	<path class="st5" d="M34.9,205.9c5.8,2.2,11.9,1.3,17.8,2.2c1.5,0.2,1.9-1.2,1.9-2.5c-0.1-5.9,0.4-11.8,0.9-17.7
		c0.1-1.5,0.2-3-2.1-3.1c-6.3-0.1-12.5-1.4-18.9-0.7c0,1.2,0,2.4,0.1,3.6c0.2,2.2-0.8,3-2.8,2.6c-4.7-1-9.4-0.3-14.1-0.7
		c-0.1,3.5-0.9,7,0.6,10.4c3.9,0.1,7.8,0.1,11.7,0.1C35.3,200.3,35.3,200.3,34.9,205.9z"/>
	<path class="st6" d="M328.8,78.7c-0.4,5.4,4.2,7.5,7.1,10.7c0.3-4.5,2.3-1.2,3.1-0.5c12,9.5,24,18.8,35.7,28.6
		c3.8,3.2,8.2,5.9,10.9,10.5c-4.9,0.9-8.7-0.3-12.1-3.6c-1.2-1.3-2.7-2.7-4.8-2.5c5.6,7.2,12.7,9.7,21.6,7c1.8-0.5,3.7-0.5,5.5-0.8
		c0.3-2.8-2.3-3.4-3.9-4.6c-10-7.3-20.1-14.4-30.2-21.6C350.8,94.1,339.8,86.4,328.8,78.7z"/>
	<path class="st4" d="M581,183c-3.7,1.8-7.8,1.8-11.8,2c-1.1,0-3.8-1.5-3.4,1.6c0.3,2.2-0.3,5.1,3.7,4.9c5-0.2,10,0.2,14.9-0.1
		c3.4-0.2,3.6,1.5,3.6,4.1c0,2.7-0.2,4.3-3.6,4.1c-4-0.3-8.1,0.1-12.1-0.1c-3.4-0.2-4.5,0.9-3.2,4.1c0.2,0.4,0,1.1,0,1.6
		c4.1,0,8.3,0,12.4,0.1c2.6-0.4,5.3-0.9,7.9-1.3c2.2-0.3,3.3-1.6,3.3-3.8c0-1.1,0.1-2.2,0.1-3.2C592.8,185.5,592,184.6,581,183z"/>
	<path class="st4" d="M17.7,189.7c4.7,0.4,9.4-0.3,14.1,0.7c2,0.4,3.1-0.4,2.8-2.6c-0.1-1.2-0.1-2.4-0.1-3.6
		c-2.2,0.6-2.3-1.8-3.5-2.6c-2.7-0.1-5.3,0.7-7.9,1.2C19.2,183.5,17,185.5,17.7,189.7z"/>
	<path class="st6" d="M558,146.1c5.7,5,9.8,11,11.5,18.5c1.7,2.5,1.2,5.6,2.4,8.1c3.1-7.1-0.9-21.7-7.2-25.9
		C562.7,145.6,560.4,144.1,558,146.1z"/>
	<path class="st7" d="M39.4,213.9c-3.5-2.4-7.6-4.1-10.1-7.8c-0.4-0.2-0.8-0.4-1.3-0.6c-1.1,1.9-3.8,0.8-4.9,2.5
		c1.7,2.9,3.3,5.8,1.5,9.3C29.7,216.9,34.4,214.5,39.4,213.9z"/>
	<path class="st4" d="M28.1,205.5c0.4,0.2,0.8,0.4,1.3,0.6c1.9,0,3.7-0.1,5.6-0.1c0.4-5.6,0.4-5.6-4.9-5.7c-3.9,0-7.8-0.1-11.7-0.1
		c0,3.1,2.2,3.9,4.7,4.3C24.7,204.8,26.4,205.1,28.1,205.5z"/>
	<path class="st5" d="M24.6,217.2c1.8-3.5,0.2-6.4-1.5-9.3c-3.9,0.5-5.1,2.1-4.1,5.8C19.8,216.5,21,219,24.6,217.2z"/>
	<path class="st5" d="M33,169.6c3.4,0.5,6.7,1.1,10.1,1.6c2.7,0.4,5.5,0.4,7.7,3.1c0.2-3-1.3-3.7-3.6-3.8c-4.7-0.3-9.3-0.6-14-1
		C33.3,169.5,33,169.6,33,169.6z"/>
	<path class="st6" d="M267,149.6c1-0.5,2.3,0,3.1-1.1c-1-1.6-2.7-1.1-3.9-1.6c-6.1,0.1-12.1-0.7-18.1-1.3c-1.7-0.1-3.5-0.3-5.2-0.2
		c-1.6,0.1-2.7,1-2.8,2.8c0,2,1.2,3,2.9,3.1c1.7,0.1,3.4-0.2,5.1-0.3C254.6,150.5,260.8,150.1,267,149.6z"/>
	<path class="st6" d="M271.3,130.3c29,0,58.1,0,87.1,0c2.2,0,4.3-0.2,6.5-0.4c2.9-0.3,3.2-1.6,1.2-3.6c-4.5-4.6-9.1-9.3-13.6-13.9
		c-6.4-6.6-12.9-13.1-19.3-19.7c-5.3-5.5-11.6-8.3-19.4-8.4c-28.7-0.4-57.3,0.4-85.5,5.2c-24,4.1-47.1,11.5-68.7,23.1
		c-2.7,1.5-5.3,3.2-7.6,5.4c-3.9,3.9-3.1,7.9,2.2,10c5.5,2.2,11.3,2.2,17.1,2.5c29.5,1.5,59.1,0.5,88.7,0.5c3.8,0,7.6,0,11.3,0
		C271.3,130.8,271.3,130.6,271.3,130.3z M342.4,107.1C342.4,107.1,342.4,107.1,342.4,107.1c0.2,0.2,0.5,0.5,0.8,0.8
		c0,0-0.1-0.1-0.1-0.1c0.3,0.3,0.6,0.6,0.9,0.9l-0.1-0.1c0.3,0.3,0.6,0.6,0.9,0.9c0,0-0.1-0.1-0.1-0.1c0.3,0.3,0.6,0.6,0.9,0.9
		l-0.1-0.1c0.3,0.3,0.6,0.6,0.9,0.9l-0.1-0.1c0.3,0.3,0.6,0.6,0.9,0.9c0,0-0.1-0.1-0.1-0.1c0.3,0.3,0.6,0.6,0.9,0.9
		c0,0-0.1-0.1-0.1-0.1c0.3,0.3,0.6,0.6,0.9,0.9c0,0-0.1-0.1-0.1-0.1c0.3,0.3,0.6,0.6,0.9,0.9c0,0-0.1-0.1-0.1-0.1
		c0.8,0.8,1.7,1.7,2.5,2.5c0,0-0.1-0.1-0.1-0.1c0.6,0.6,1.1,1.1,1.7,1.7l-0.1-0.1c0.3,0.3,0.6,0.6,0.9,0.9c2.4,2.3,4.9,4.6,7.2,7
		c0.6,0.6,1.7,1.2,1.1,2.3c-0.5,0.8-1.5,0.5-2.2,0.5c-8.7,0-17.5-0.1-26.2,0.1c-2.4,0-3.3-1.2-4.1-3.1c-2.3-5.7-4.7-11.4-7-17.1
		c-2.6-6.6-5.1-13.2-7.7-19.8c-1.4-0.1-2.7-0.2-4.1-0.3c-0.1,1.2,0.1,2.4,0.6,3.5c4.5,10.7,8.8,21.5,13.3,32.2
		c1.9,4.5,1.9,4.6-3.1,4.5c-15.9-0.3-31.8,0.5-47.7-0.7c-9.1-0.7-18.3-0.4-27.5,0c-3.8,0.1-5.3-1.5-6.2-4.7
		c-2.1-6.8-4.3-13.6-6.5-20.4c-1-3.2-2.7-6.2-2.4-9.7c-6.5,0.1-6.6,0.3-4.6,6.1c3,8.5,5.9,17,8.9,25.5c0.3,0.9,1.2,1.8,0.1,2.9
		c-1.6-0.8-1.6-2.4-2-3.7c-3.2-9-6.4-17.9-9.4-27c-0.7-2.1-1.6-3-3.7-2c3.1,9.7,6.2,19.5,9.5,29.2c1,3,0.7,3.7-2.7,3.8
		c-19.3,0.4-38.5-1.1-57.8-1c-4.4,0-8.8-0.8-13.1-1.7c-3.9-0.8-4.2-2.6-1.9-5.5c1.3-1.6,3.1-2.4,4.7-3.4c0.5-0.2,1.1-0.5,1.6-0.7
		c0,0-0.1,0.1-0.1,0.1c0.3-0.3,0.6-0.6,0.9-0.9l-0.1,0.1c0.6-0.3,1.1-0.6,1.7-0.9c0,0-0.1,0.1-0.1,0.1c0.6-0.3,1.1-0.6,1.7-0.9
		c0,0-0.1,0.1-0.1,0.1c0.6-0.3,1.1-0.6,1.7-0.9l-0.1,0.1c0.6-0.3,1.1-0.6,1.7-0.9l-0.1,0.1c0.6-0.3,1.1-0.6,1.7-0.9l-0.1,0.1
		c1.8-1,3.7-2.1,5.8-2.5l-0.1,0.1c1.2-1,2.6-1.5,4.1-1.7l-0.1,0.1c1.2-1,2.6-1.4,4.1-1.7l-0.1,0.1c2.2-1.3,4.5-2.1,7-2.5l-0.1,0
		c0.6-0.3,1.1-0.6,1.7-0.9c18.2-6.4,36.9-10,56.1-12c2.1-0.6,4.2-1.6,6.3,0.2c0.2,0.1,0.5,0.1,0.7,0c0.4-0.1,0.8-0.2,1.2-0.3
		c3.8-1,7.7-1.5,11.7-1.3c4.9-1.8,10-1.2,15-1.2c10.7,0,21.3,0,32,0c4.6,0,8.7,1.3,11.9,4.8l-0.1-0.1c4.2,2.9,7.5,6.6,10.6,10.6
		l-0.1-0.1c0.5,0,0.8,0.3,0.9,0.9l-0.1-0.1c0.5,0,0.8,0.4,0.9,0.9l-0.1-0.1c0.5,0.1,0.8,0.3,0.9,0.9c0,0-0.1-0.1-0.1-0.1
		c0.3,0.3,0.6,0.6,0.9,0.9l-0.1-0.1C341.9,106.6,342.2,106.8,342.4,107.1z"/>
	<path class="st7" d="M368.8,121.8c2.1-0.1,3.6,1.3,4.8,2.5c3.3,3.3,7.2,4.5,12.1,3.6c-2.7-4.6-7.1-7.3-10.9-10.5
		c-11.7-9.8-23.8-19.2-35.7-28.6c-0.8-0.7-2.8-4-3.1,0.5c0.2,0.2,0.5,0.5,0.7,0.7c0.3,0.3,0.6,0.6,0.9,0.9c0,0,0,0,0,0
		c1.1,0,1.7,0.5,1.7,1.7c0,0,0,0,0,0c0.7,0,1.4,0.1,1.6,0.9c0,0,0-0.1,0-0.1c0.3,0.3,0.6,0.6,0.9,0.9c0,0-0.1-0.1-0.1-0.1
		c0.8,0.2,0.9,0.9,0.9,1.6c0,0,0,0,0,0c0.7,0,1.4,0.1,1.6,0.9c0,0-0.1-0.1-0.1-0.1c0.3,0.3,0.6,0.6,0.9,0.9c0,0,0-0.1,0-0.1
		c0.3,0.3,0.6,0.6,0.8,0.9c0,0,0-0.1,0-0.1c0.3,0.3,0.6,0.6,0.9,0.9c0,0-0.1,0-0.1,0c0.9,0.2,1.5,0.8,1.7,1.7c0,0-0.1-0.1-0.1-0.1
		c0.9,0.2,1.5,0.8,1.7,1.7c0,0,0-0.1,0-0.1c0.3,0.3,0.6,0.6,0.9,0.9c0,0-0.1-0.1-0.1-0.1c0.8,0.2,0.9,0.9,1,1.5
		c0.3,0.3,0.6,0.6,0.8,0.8c0.7,0.1,1.3,0.2,1.5,0.9c0,0-0.1,0-0.1,0c1.7-0.1,2.5,0.8,2.5,2.5c0,0,0-0.1,0-0.1
		c0.3,0.3,0.6,0.6,0.9,0.9c0,0,0-0.1,0-0.1c0.3,0.3,0.6,0.6,0.9,0.9c0,0-0.1,0-0.1,0c4.7,2.5,8.4,5.9,10.6,10.8
		C368.3,121.6,368.5,121.7,368.8,121.8z"/>
	<path class="st3" d="M248.2,145.6c6,0.6,12,1.4,18.1,1.3c-1.5-3.3-6.5-5.5-11.2-4.6C252.6,142.8,249.5,142.5,248.2,145.6z"/>
	<path class="st6" d="M368.3,121.3c-2.2-5-5.9-8.3-10.6-10.8C360.7,114.6,364.5,118,368.3,121.3z"/>
	<path class="st3" d="M389.4,133.9c3,1.7,6.3,2.7,9.7,3.3l0.1-0.1C396.4,134.6,393,133.9,389.4,133.9L389.4,133.9z"/>
	<path class="st3" d="M389.4,133.8c-4-1.4-6.9-1.8-12.5-1.2C381.9,133.1,385.6,134.2,389.4,133.8
		C389.4,133.9,389.4,133.8,389.4,133.8z"/>
	<path class="st6" d="M356.1,108.9c0.1-1.7-0.7-2.5-2.5-2.5C353.9,107.7,354.8,108.5,356.1,108.9z"/>
	<path class="st6" d="M339.2,92.6c0-1.1-0.5-1.7-1.7-1.7C338.1,91.5,338.6,92,339.2,92.6z"/>
	<path class="st6" d="M348,100.8c-0.2-0.9-0.8-1.5-1.7-1.7C346.3,100.2,346.9,100.7,348,100.8z"/>
	<path class="st6" d="M349.6,102.4c-0.2-0.9-0.8-1.5-1.7-1.7C348,101.8,348.5,102.4,349.6,102.4z"/>
	<path class="st6" d="M340.7,93.5c-0.2-0.8-0.9-0.9-1.6-0.9C339.5,93.1,339.9,93.7,340.7,93.5z"/>
	<path class="st6" d="M342.4,95.8c0-0.7-0.1-1.4-0.9-1.6C341.2,95.1,341.8,95.4,342.4,95.8z"/>
	<path class="st6" d="M344,96.7c-0.2-0.8-0.9-0.9-1.6-0.9C342.7,96.4,343.1,97,344,96.7z"/>
	<path class="st3" d="M408.9,146.8c-0.1-0.4-0.2-0.7-0.4-1.1c-0.1,0.1-0.3,0.2-0.3,0.2C408.4,146.3,408.6,146.6,408.9,146.8
		C408.8,146.9,408.9,146.8,408.9,146.8z"/>
	<path class="st6" d="M351.3,104.6c-0.1-0.7-0.2-1.3-1-1.5C350.2,103.9,350.8,104.3,351.3,104.6z"/>
	<path class="st3" d="M407.3,143.5c0-0.7-0.2-1.3-0.8-1.6l-0.1,0.1C406.4,142.7,406.6,143.3,407.3,143.5L407.3,143.5z"/>
	<path class="st6" d="M353.7,106.4c-0.3-0.7-0.9-0.9-1.5-0.9C352.5,106.1,353,106.5,353.7,106.4z"/>
	<path class="st3" d="M399.1,137.1c0.3,0.2,0.6,0.4,0.9,0.6c0,0,0.1-0.2,0.2-0.3C399.9,137.3,399.5,137.2,399.1,137.1
		C399.2,137.1,399.1,137.1,399.1,137.1z"/>
	<path class="st6" d="M345.6,98.3c-0.3-0.3-0.6-0.6-0.8-0.9C344.6,98.1,344.9,98.4,345.6,98.3z"/>
	<path class="st6" d="M337.5,91c-0.3-0.3-0.6-0.6-0.9-0.9C337,90.4,337.3,90.7,337.5,91z"/>
	<path class="st6" d="M344.8,97.5c-0.3-0.3-0.6-0.6-0.9-0.9C343.8,97.3,344.1,97.6,344.8,97.5z"/>
	<path class="st6" d="M350.5,103.2c-0.3-0.3-0.6-0.6-0.9-0.9C349.5,102.9,349.8,103.2,350.5,103.2z"/>
	<path class="st3" d="M405.7,141.1c-0.3-0.3-0.5-0.5-0.8-0.8c0,0-0.1,0.1-0.1,0.1C405,140.7,405.3,140.9,405.7,141.1
		C405.6,141.2,405.7,141.1,405.7,141.1z"/>
	<path class="st3" d="M404.8,140.3c-0.1-0.1-0.3-0.2-0.4-0.3C404.6,140.1,404.7,140.3,404.8,140.3
		C404.8,140.4,404.8,140.3,404.8,140.3z"/>
	<path class="st3" d="M402.3,138.8c0.1,0.1,0.3,0.2,0.4,0.3C402.6,138.9,402.5,138.8,402.3,138.8
		C402.4,138.7,402.3,138.8,402.3,138.8z"/>
	<path class="st6" d="M357,109.6c-0.3-0.3-0.6-0.6-0.9-0.9C356.1,109.4,356.4,109.6,357,109.6z"/>
	<path class="st3" d="M407.2,143.6c0.1,0.1,0.3,0.2,0.4,0.3C407.5,143.8,407.4,143.7,407.2,143.6
		C407.3,143.5,407.2,143.6,407.2,143.6z"/>
	<path class="st6" d="M341.5,94.3c-0.3-0.3-0.6-0.6-0.9-0.9C340.5,94.1,340.8,94.4,341.5,94.3z"/>
	<path class="st3" d="M406.5,141.9c-0.3-0.3-0.5-0.5-0.8-0.8c0,0-0.1,0.1-0.1,0.1C405.8,141.5,406.1,141.7,406.5,141.9
		C406.4,142,406.5,141.9,406.5,141.9z"/>
	<path class="st6" d="M346.4,99.1c-0.3-0.3-0.6-0.6-0.9-0.9C345.4,98.9,345.7,99.2,346.4,99.1z"/>
	<path class="st3" d="M402.4,138.7c-0.1-0.1-0.3-0.2-0.4-0.3C402.1,138.5,402.2,138.6,402.4,138.7
		C402.3,138.8,402.4,138.7,402.4,138.7z"/>
	<path class="st6" d="M357.8,110.4c-0.3-0.3-0.6-0.6-0.9-0.9C356.9,110.2,357.2,110.4,357.8,110.4z"/>
	<path class="st6" d="M148.9,247.5c19.3-0.1,34.7-15.6,34.6-34.8c-0.2-18.8-15.8-34.2-34.9-34.2c-19.1,0-34.7,15.8-34.6,34.9
		C114.2,232.4,129.7,247.6,148.9,247.5z M158.3,192.4c-0.7-0.1-1.4-0.1-2.1-0.2c0.7,1.4,2.4,1.5,3.5,2.4c3.7,2.8,3.8,5.1,0,7.8
		c-1.6,1.2-3.2,2.4-5,3.4c-2.7,1.5-4.5,0.5-5-2.3c-0.5-2.6-0.6-5.3-0.6-8c0-2,1.2-3.2,3.3-3.3c1.2-0.1,2.4-0.1,3.6-0.1
		c-0.1-0.1-0.2-0.3-0.2-0.4c-6.3-1.5-12.4-1.2-18.1,2.1c-0.6,0.4-2.1,0.5-1,1.8c2.8-0.6,4.3,0.5,5,3.3c0.4,1.8,1.1,3.6,1.6,5.4
		c1.1,4-0.4,5.6-4.6,4.7c-1.7-0.4-3.4-1-5.1-1.2c-3-0.4-4.3-1.9-3.9-4.9c-3.3,1.4-3.2,4.6-3.7,7.4c-0.3,1.7-0.2,3.4-1.4,4.9
		c-1.9-13,7.9-25.4,20.7-26.2c3.7-0.2,7.5-0.5,10.7,2.2c0.8,0.3,1.6,0.6,2.4,0.9c0.3,0.2,1.2,0.2,0.8,0.8
		C159.2,193.2,158.6,192.8,158.3,192.4z M161.5,186.7c-1.4-0.3-2.9-0.6-4.3-1c-15.9-4.4-30,4.2-35.5,17.6c-1.7,4.3-2,8.8-2.6,13.3
		c-2-11.2,1.9-20.2,10.3-27.5c8.6-7.4,23.9-8.7,32.4-2.8c0.3,0.2,1.2,0.2,0.8,0.8C162.4,187.5,161.9,187.1,161.5,186.7z
		 M158.3,232.6c4-0.7,6.6-3.3,9-6.3c3.6-4.5,4.4-10,5.4-15.4c1.5,10-2.3,17.7-10.7,23c-6.2,3.9-12.9,5.2-20.6,1.7
		c4.8-1.1,9.1,0.7,13-1.1c-0.9,0-1.9,0-2.8,0.1c-5.8,0.1-7.1-1.5-5-6.9c1-2.5,0.6-6.2,4-6.9c3.6-0.7,4.5,3.2,6.6,5
		C159.4,227.5,160.5,229.8,158.3,232.6z M170.6,214.3c-0.1,0.6-0.3,1.9-0.7,3.2c-1.5,4.9-3.7,5.7-7.7,2.5c-2.2-1.8-6.1-2.8-5.8-6.2
		c0.4-3.7,4.6-3.6,7.3-4.7C168.4,207,170.6,208.6,170.6,214.3z M135.6,215.5C135.6,215.5,135.6,215.5,135.6,215.5
		c0.8,0.1,1.6,0.1,2.4,0.1c4.9,0.1,5.9,1.8,3.5,5.9c-1.1,1.9-2.2,3.7-3.4,5.5c-1,1.5-2.4,2-4.2,1.3c-2.5-1-5.6-6.3-5.5-9.4
		c0.1-1.6,0.6-2.9,2.3-3.3c0.6-0.1,1.3-0.1,2-0.1C133.8,215.5,134.7,215.5,135.6,215.5z M178.1,209c2.6,12.1-3.1,24.6-13.8,30.5
		c-8.9,4.9-22.4,5.3-27.7,0.2c10.7,3.1,20.4,2.7,29.2-3.9C174.7,229.1,178.2,219.9,178.1,209z M148.6,219c-2.8,0.1-5.6-2.8-5.6-5.7
		c0-3.5,2.1-5.6,5.9-5.7c3.4-0.1,5.5,2,5.6,5.5C154.5,216,151.7,218.9,148.6,219z"/>
	<path class="st6" d="M485.2,180.6c-19.3,0.1-34.4,15.2-34.5,34.3c0,19.2,15.4,34.7,34.7,34.7c19.1,0,34.6-15.7,34.5-34.9
		C519.8,195.7,504.4,180.5,485.2,180.6z M501.3,201.1c0.3,3.5-4.3,7.4-9.6,8.1c-2.4,0.3-3.4-0.9-3.5-3.3c-0.4-7.7,0.9-10.3,5.8-10.8
		c-3.9-4.5-9.3-2.1-14-3.1c6.7-4.1,17.7,0.2,22.5,5c7.1,7.2,9.1,18.3,4.6,25.7c-0.1-1-0.2-1.8-0.3-2.5c-4.1,8.2-5.5,8.7-10.3,3.2
		c-1.7-1.9-4.9-3.4-3.8-6.5c1-3.1,4.5-2.4,6.9-3c6.4-1.5,7.3-0.7,7.3,5.9c1.9-6.4,0.3-12.1-3.2-17.6
		C503.1,201.2,502.3,201.1,501.3,201.1z M463.8,219.7c1-6,1.4-6.3,7.3-5c1.7,0.4,3.5,0.6,5.1,1.1c1.6,0.5,2.5,1.6,2.2,3.4
		c-0.5,3.1-7.6,8.6-10.9,8.6c3.9,8.6,12.4,9.1,20.8,11c-9.8,1.7-18.9-2.3-23.6-10c-3.9-6.4-4.5-13.1-1.9-20
		C463.6,212.4,462.4,216.1,463.8,219.7z M481.7,204.9c0.2,4.5-1.5,5.6-5.3,4.1c-1.6-0.7-3.2-1.4-4.8-2.2c-4.2-2-4.7-4.5-1.3-7.7
		c1.1-1,2.3-1.9,3.6-2.6c4.5-2.4,6.5-1.2,7.2,3.9C481.3,202.3,481.6,203.9,481.7,204.9z M485.6,236.7c-2.2-0.3-5.2-0.1-6.7-2.8
		c-1.4-2.3,0.7-4.1,1.8-5.8c1.4-2.1,1.8-5.7,5.1-5.6c3.2,0.2,3.6,3.6,5,5.9C494,233.9,492.4,236.7,485.6,236.7z M478.5,186.5
		c12.2-4.5,24.2,0.8,31.4,10.1c6.7,8.6,8.2,21.8,2.3,30c3.5-11.6,2.1-21.4-5.2-30C499.5,187.8,489.6,185.3,478.5,186.5z
		 M485.4,220.6c-3.1,0-6-2.8-6-5.8c0-3,3.1-5.7,6.2-5.6c3.1,0.1,5.7,2.7,5.7,5.7C491.3,218,488.6,220.6,485.4,220.6z M490,244.5
		c-12.6,2.4-25.3-3.2-31.3-14c-4.5-8-5.4-18.9-1.9-22.5C454.7,225.4,464,244.3,490,244.5z M489.6,237.8c0.5-0.1,0.8-0.1,1.1-0.1
		c0,0,0.1,0.5,0.1,0.5c-0.2,0.1-0.5,0.2-0.7,0.1C489.9,238.3,489.8,238.1,489.6,237.8z M475.7,186.9c0.2-0.1,0.4-0.2,0.6-0.2
		c0.1,0,0.1,0.2,0.2,0.2c-0.2,0.1-0.4,0.2-0.6,0.2C475.9,187.2,475.8,187,475.7,186.9z M477.7,192.9c-0.1-0.1-0.2-0.1-0.3-0.2
		c0.1-0.1,0.2-0.2,0.3-0.3c0.1,0.1,0.3,0.2,0.4,0.4C477.9,192.8,477.8,192.8,477.7,192.9z M512.1,227.5c0.1,0,0.3,0,0.3,0.1
		c0.1,0.1,0.1,0.3,0.1,0.4c-0.2,0.3-0.4,0.3-0.5-0.1C511.9,227.8,512,227.6,512.1,227.5z"/>
	<path class="st3" d="M207.9,218.2c-0.1-0.3-0.2-0.6-0.4-0.9c0,0.1-0.1,0.3-0.1,0.3C207.5,217.8,207.7,217.9,207.9,218.2
		C207.9,218.1,207.9,218.2,207.9,218.2z"/>
	<path class="st7" d="M255.3,90.4c-2.1-1.8-4.2-0.8-6.3-0.2c-0.8,1.8-2.5,1.1-3.8,1.4c-4.3,0.7-8.7,1.3-13,1.9
		c-0.3,3.5,1.4,6.5,2.4,9.7c2.1,6.8,4.4,13.6,6.5,20.4c1,3.2,2.4,4.8,6.2,4.7c9.2-0.3,18.4-0.6,27.5,0c15.9,1.1,31.8,0.4,47.7,0.7
		c5,0.1,5,0,3.1-4.5c-4.4-10.7-8.8-21.5-13.3-32.2c-0.5-1.2-0.7-2.3-0.6-3.5c-7.9,0-15.8,0-23.7-0.2c-1.3,0-3,0.9-4-0.9
		c-5,0-10.1-0.6-15,1.2c-3.7,1.8-7.8,0.9-11.7,1.3c-0.4,0.1-0.8,0.2-1.2,0.3c0,0-0.4,0.1-0.4,0.1L255.3,90.4z"/>
	<path class="st7" d="M191.2,103.1C191.2,103.1,191.3,103,191.2,103.1c-2,1.5-4.4,2.2-6.9,2.4c0,0,0.1-0.1,0.1-0.1
		c-1,1.5-2.6,1.5-4.1,1.7c0,0,0.1-0.1,0.1-0.1c-1,1.4-2.6,1.5-4.1,1.7c0,0,0.1-0.1,0.1-0.1c-1.5,1.7-3.6,2.2-5.8,2.5
		c0,0,0.1-0.1,0.1-0.1c-0.2,1-1.1,0.6-1.7,0.9c0,0,0.1-0.1,0.1-0.1c-0.3,0.9-1.1,0.6-1.7,0.9c0,0,0.1-0.1,0.1-0.1
		c-0.3,0.9-1.1,0.6-1.7,0.9c0,0,0.1-0.1,0.1-0.1c-0.3,0.9-1.2,0.6-1.7,0.9c0,0,0.1-0.1,0.1-0.1c-0.3,0.9-1.2,0.5-1.7,0.9
		c0,0,0.1-0.1,0.1-0.1c-0.3,0.3-0.6,0.6-0.9,0.9c0,0,0.1-0.1,0.1-0.1c-0.5,0.2-1.1,0.5-1.6,0.7c-1.6,1-3.4,1.8-4.7,3.4
		c-2.3,2.9-2,4.7,1.9,5.5c4.3,0.9,8.7,1.7,13.1,1.7c19.3-0.2,38.5,1.4,57.8,1c3.4-0.1,3.7-0.8,2.7-3.8c-3.3-9.7-6.3-19.4-9.5-29.2
		c-1.3,0.3-2.6,0.5-3.9,0.8C208.7,98.4,200,100.8,191.2,103.1z"/>
	<path class="st7" d="M315.8,89c2.6,6.6,5.1,13.2,7.7,19.8c2.3,5.7,4.7,11.4,7,17.1c0.8,1.9,1.7,3.1,4.1,3.1
		c8.7-0.1,17.5,0,26.2-0.1c0.8,0,1.8,0.3,2.2-0.5c0.7-1.1-0.5-1.7-1.1-2.3c-2.4-2.4-4.8-4.6-7.2-7c-1.1,0.6-0.7-0.4-0.9-0.9
		c0,0,0.1,0.1,0.1,0.1c-1-0.1-1.7-0.6-1.7-1.7c0,0,0.1,0.1,0.1,0.1c-1.5-0.2-2.3-1-2.5-2.5c0,0,0.1,0.1,0.1,0.1
		c-0.6,0-0.9-0.3-0.9-0.9c0,0,0.1,0.1,0.1,0.1c-0.6,0-0.9-0.3-0.9-0.9c0,0,0.1,0.1,0.1,0.1c-0.6,0-0.9-0.3-0.9-0.9
		c0,0,0.1,0.1,0.1,0.1c-0.6,0-0.9-0.3-0.9-0.9c0,0,0.1,0.1,0.1,0.1c-0.6,0-0.9-0.3-0.9-0.9c0,0,0.1,0.1,0.1,0.1
		c-0.6,0-0.9-0.3-0.9-0.9c0,0,0.1,0.1,0.1,0.1c-0.6,0-0.9-0.3-0.9-0.9c0,0,0.1,0.1,0.1,0.1c-0.6,0-0.9-0.3-0.9-0.9
		c0,0,0.1,0.1,0.1,0.1c-0.6,0-0.9-0.2-0.9-0.9c0,0,0.1,0.1,0.1,0.1c-0.6,0-0.9-0.2-0.9-0.9c0,0,0.1,0.1,0.1,0.1
		c-0.6,0.1-0.9-0.2-0.9-0.9c0,0,0.1,0.1,0.1,0.1c-0.6,0.1-0.9-0.2-0.9-0.9c0,0,0.1,0.1,0.1,0.1c-0.6,0.1-1-0.2-0.9-0.9
		c0,0,0.1,0.1,0.1,0.1c-0.7,0.1-0.9-0.2-0.9-0.9l0.1,0.1c-4.3-2.8-7.7-6.4-10.6-10.6c0,0,0.1,0.1,0.1,0.1
		C323.8,91.4,320.4,88.1,315.8,89z"/>
	<path class="st5" d="M191.2,103.1c8.7-2.3,17.5-4.7,26.2-7c1.3-0.3,2.6-0.5,3.9-0.8c2.1-1,3-0.1,3.7,2c3,9,6.2,18,9.4,27
		c0.5,1.3,0.4,2.9,2,3.7c1.1-1.1,0.2-2-0.1-2.9c-2.9-8.5-5.9-17-8.9-25.5c-2-5.8-2-5.9,4.6-6.1c4.3-0.6,8.7-1.2,13-1.9
		c1.3-0.2,3.1,0.5,3.8-1.4c-19.1,2-37.9,5.6-56.1,12C192.4,102.4,191.8,102.8,191.2,103.1z"/>
	<path class="st5" d="M315.8,89c4.6-0.9,8,2.4,12.1,3.5c-3.2-3.5-7.3-4.8-11.9-4.8c-10.7,0-21.3,0-32,0c1,1.8,2.6,0.9,4,0.9
		c7.9,0.1,15.8,0.1,23.7,0.2C313,88.8,314.4,88.9,315.8,89z"/>
	<path class="st5" d="M327.8,92.5c2.9,4.1,6.3,7.8,10.6,10.6C335.3,99.1,332,95.3,327.8,92.5z"/>
	<path class="st5" d="M257.3,90.1c3.9-0.3,7.9,0.6,11.7-1.3C265,88.6,261.1,89.1,257.3,90.1z"/>
	<path class="st5" d="M184.3,105.5c2.5-0.2,4.9-0.9,7-2.5C188.8,103.4,186.5,104.2,184.3,105.5z"/>
	<path class="st5" d="M170.5,111.2c2.2-0.3,4.2-0.7,5.8-2.5C174.2,109.1,172.4,110.2,170.5,111.2z"/>
	<path class="st5" d="M176.2,108.8c1.6-0.1,3.1-0.3,4.1-1.7C178.8,107.3,177.4,107.8,176.2,108.8z"/>
	<path class="st5" d="M180.3,107.1c1.5-0.1,3.1-0.2,4.1-1.7C182.9,105.7,181.5,106.2,180.3,107.1z"/>
	<path class="st5" d="M349.7,114.4c0.2,1.5,1,2.3,2.5,2.5C351.3,116,350.5,115.2,349.7,114.4z"/>
	<path class="st5" d="M352.1,116.8c0,1.1,0.7,1.6,1.7,1.7C353.2,117.9,352.7,117.4,352.1,116.8z"/>
	<path class="st5" d="M255.3,90.4l0.4,0.1c0,0,0.4-0.1,0.4-0.1C255.8,90.5,255.6,90.5,255.3,90.4z"/>
	<path class="st5" d="M160.1,116.7c0.5-0.2,1.1-0.5,1.6-0.7C161.2,116.2,160.7,116.5,160.1,116.7z"/>
	<path class="st5" d="M162.4,115.3c0.6-0.3,1.5,0,1.7-0.9C163.6,114.7,163,115,162.4,115.3z"/>
	<path class="st5" d="M164.1,114.4c0.6-0.3,1.4,0,1.7-0.9C165.2,113.9,164.6,114.1,164.1,114.4z"/>
	<path class="st5" d="M165.7,113.6c0.6-0.3,1.4,0,1.7-0.9C166.8,113,166.3,113.3,165.7,113.6z"/>
	<path class="st5" d="M167.3,112.8c0.6-0.3,1.5,0,1.7-0.9C168.5,112.2,167.9,112.5,167.3,112.8z"/>
	<path class="st5" d="M168.9,112c0.6-0.3,1.5,0.1,1.7-0.9C170.1,111.4,169.5,111.7,168.9,112z"/>
	<path class="st5" d="M353.7,118.4c0.2,0.4-0.2,1.4,0.9,0.9C354.3,119,354,118.7,353.7,118.4z"/>
	<path class="st5" d="M348.9,113.6c0,0.6,0.3,0.9,0.9,0.9C349.4,114.1,349.2,113.9,348.9,113.6z"/>
	<path class="st5" d="M338.3,103c-0.1,0.6,0.2,1,0.9,0.9C339.2,103.4,338.9,103.1,338.3,103z"/>
	<path class="st5" d="M348.1,112.8c0,0.6,0.3,0.9,0.9,0.9C348.6,113.3,348.3,113,348.1,112.8z"/>
	<path class="st5" d="M339.1,103.8c-0.1,0.7,0.2,0.9,0.9,0.9C340,104.2,339.7,103.9,339.1,103.8z"/>
	<path class="st5" d="M344,108.7c0,0.6,0.3,0.9,0.9,0.9C344.6,109.3,344.3,109,344,108.7z"/>
	<path class="st5" d="M340,104.6c-0.1,0.6,0.2,0.9,0.9,0.9C340.8,105,340.5,104.7,340,104.6z"/>
	<path class="st5" d="M343.2,107.9c0,0.6,0.3,0.9,0.9,0.9C343.8,108.5,343.5,108.2,343.2,107.9z"/>
	<path class="st5" d="M340.8,105.5c-0.1,0.6,0.2,0.9,0.9,0.9C341.3,106,341.1,105.7,340.8,105.5z"/>
	<path class="st5" d="M347.2,111.9c0,0.6,0.3,0.9,0.9,0.9C347.8,112.5,347.5,112.2,347.2,111.9z"/>
	<path class="st5" d="M346.4,111.1c0,0.6,0.3,0.9,0.9,0.9C347,111.7,346.7,111.4,346.4,111.1z"/>
	<path class="st5" d="M345.6,110.3c0,0.6,0.3,0.9,0.9,0.9C346.2,110.9,345.9,110.6,345.6,110.3z"/>
	<path class="st5" d="M342.4,107.1c0,0.6,0.3,0.9,0.9,0.9C343,107.7,342.7,107.4,342.4,107.1z"/>
	<path class="st5" d="M344.8,109.5c0,0.6,0.3,0.9,0.9,0.9C345.4,110.1,345.1,109.8,344.8,109.5z"/>
	<path class="st5" d="M341.6,106.3c-0.1,0.6,0.2,0.9,0.9,0.9C342.2,106.8,341.9,106.6,341.6,106.3z"/>
	<path class="st5" d="M161.6,116.1c0.3-0.3,0.6-0.6,0.9-0.9C162.2,115.5,161.9,115.8,161.6,116.1z"/>
	<path class="st5" d="M170.6,214.3c0.1-5.7-2.2-7.3-6.9-5.2c-2.7,1.2-6.9,1-7.3,4.7c-0.4,3.4,3.6,4.4,5.8,6.2c4,3.3,6.3,2.5,7.7-2.5
		C170.2,216.2,170.4,214.9,170.6,214.3z"/>
	<path class="st5" d="M156,192c-1.2,0-2.4,0-3.6,0.1c-2.1,0.1-3.3,1.3-3.3,3.3c0,2.7,0.2,5.4,0.6,8c0.5,2.9,2.3,3.9,5,2.3
		c1.7-1,3.3-2.2,5-3.4c3.8-2.7,3.7-4.9,0-7.8c-1.1-0.9-2.8-1-3.5-2.4L156,192z"/>
	<path class="st5" d="M129.8,202.8c-0.4,3,0.9,4.5,3.9,4.9c1.7,0.2,3.4,0.9,5.1,1.2c4.1,0.9,5.7-0.7,4.6-4.7
		c-0.5-1.8-1.2-3.6-1.6-5.4c-0.6-2.8-2.2-3.9-5-3.3C133.8,197.4,131.3,199.6,129.8,202.8z"/>
	<path class="st5" d="M158.3,232.6c2.2-2.7,1.1-5-1.1-7c-2.1-1.9-3.1-5.7-6.6-5c-3.3,0.7-3,4.4-4,6.9c-2.1,5.4-0.8,7,5,6.9
		c0.9,0,1.9,0,2.8-0.1c1.1-0.5,2.2-1,3.3-1.5C157.9,232.7,158.1,232.6,158.3,232.6L158.3,232.6z"/>
	<path class="st5" d="M135.6,215.5c-0.9,0-1.9,0-2.8,0c-0.7,0-1.4,0-2,0.1c-1.7,0.4-2.3,1.7-2.3,3.3c-0.1,3.1,3,8.4,5.5,9.4
		c1.8,0.7,3.2,0.2,4.2-1.3c1.2-1.8,2.3-3.6,3.4-5.5c2.4-4.1,1.4-5.8-3.5-5.9C137.3,215.5,136.4,215.6,135.6,215.5
		C135.6,215.5,135.6,215.5,135.6,215.5z"/>
	<path class="st7" d="M161.9,186.3c-8.5-5.9-23.8-4.6-32.4,2.8c-8.4,7.2-12.3,16.3-10.3,27.5c0.5-4.5,0.9-9,2.6-13.3
		c5.4-13.4,19.6-22,35.5-17.6c1.4,0.4,2.9,0.7,4.3,1C161.7,186.6,161.8,186.4,161.9,186.3z"/>
	<path class="st7" d="M178.1,209c0.1,10.9-3.4,20-12.2,26.8c-8.7,6.7-18.5,7.1-29.2,3.9c5.3,5.1,18.8,4.7,27.7-0.2
		C175,233.7,180.7,221.1,178.1,209z"/>
	<path class="st7" d="M148.6,219c3.1-0.1,6-3,5.9-6c-0.1-3.5-2.2-5.5-5.6-5.5c-3.7,0.1-5.9,2.1-5.9,5.7
		C143,216.2,145.8,219,148.6,219z"/>
	<path class="st7" d="M129.8,202.8c1.5-3.2,4-5.4,6.9-7.2c-1.1-1.4,0.4-1.5,1-1.8c5.7-3.3,11.8-3.7,18.1-2.1
		c0.2-0.1,0.3-0.3,0.4-0.5c-3.2-2.6-7-2.4-10.7-2.2c-12.8,0.7-22.7,13.2-20.7,26.2c1.3-1.5,1.1-3.3,1.4-4.9
		C126.7,207.4,126.5,204.2,129.8,202.8z"/>
	<path class="st7" d="M157.7,232.9c-1.1,0.5-2.2,1-3.3,1.5c-4,1.8-8.2,0.1-13,1.1c7.7,3.6,14.4,2.2,20.6-1.7
		c8.3-5.3,12.2-12.9,10.7-23c-1,5.4-1.8,10.9-5.4,15.4c-2.4,3-5,5.6-9,6.3c0,0,0.1,0,0.1,0C158.3,233,158.1,233.3,157.7,232.9z"/>
	<path class="st7" d="M156.2,192.2c0.7,0.1,1.4,0.1,2.1,0.2c0.1-0.1,0.2-0.3,0.3-0.4c-0.8-0.3-1.6-0.6-2.4-0.9
		c-0.1,0.2-0.2,0.3-0.4,0.5c0.1,0.2,0.1,0.3,0.2,0.4C156,192,156.2,192.2,156.2,192.2z"/>
	<path class="st7" d="M158.3,192.4c0.3,0.4,0.9,0.8,1.2,0.4c0.4-0.6-0.5-0.6-0.8-0.8C158.5,192.1,158.4,192.2,158.3,192.4z"/>
	<path class="st7" d="M161.5,186.7c0.3,0.4,0.9,0.9,1.2,0.4c0.4-0.6-0.5-0.5-0.8-0.8C161.8,186.4,161.7,186.6,161.5,186.7z"/>
	<path class="st5" d="M467.5,227.7c3.3,0,10.4-5.5,10.9-8.6c0.3-1.7-0.6-2.9-2.2-3.4c-1.7-0.5-3.4-0.7-5.1-1.1c-5.9-1.3-6.3-1-7.3,5
		c-0.3,2.7,1.2,4.8,2.6,6.9C467.2,226.5,467.8,226.8,467.5,227.7L467.5,227.7z"/>
	<path class="st5" d="M481.7,204.9c-0.2-1.1-0.4-2.7-0.6-4.3c-0.6-5.2-2.6-6.3-7.2-3.9c-1.3,0.7-2.6,1.5-3.6,2.6
		c-3.4,3.2-2.9,5.7,1.3,7.7c1.6,0.7,3.2,1.5,4.8,2.2C480.2,210.6,481.9,209.4,481.7,204.9z"/>
	<path class="st5" d="M485.6,236.7c6.8,0,8.4-2.8,5.2-8.3c-1.3-2.2-1.8-5.7-5-5.9c-3.3-0.2-3.7,3.4-5.1,5.6
		c-1.1,1.7-3.1,3.5-1.8,5.8C480.5,236.5,483.4,236.4,485.6,236.7z"/>
	<path class="st5" d="M506.9,219.8c0-6.5-0.9-7.3-7.3-5.9c-2.5,0.6-5.9-0.1-6.9,3c-1.1,3.1,2.2,4.6,3.8,6.5c4.8,5.5,6.2,5,10.3-3.2
		c0,0-0.1-0.3-0.1-0.3L506.9,219.8z"/>
	<path class="st5" d="M494,195.1c-4.9,0.5-6.2,3.1-5.8,10.8c0.1,2.4,1.2,3.5,3.5,3.3c5.3-0.6,9.8-4.5,9.6-8.1
		C499.4,198.5,496.9,196.5,494,195.1z"/>
	<path class="st7" d="M478.5,186.5c11.2-1.1,21,1.3,28.5,10.1c7.3,8.6,8.7,18.4,5.2,30c5.9-8.2,4.4-21.4-2.3-30
		C502.7,187.3,490.7,181.9,478.5,186.5z"/>
	<path class="st7" d="M485.4,220.6c3.2,0,6-2.6,5.9-5.8c0-3-2.6-5.6-5.7-5.7c-3.1-0.1-6.2,2.7-6.2,5.6
		C479.3,217.8,482.2,220.6,485.4,220.6z"/>
	<path class="st7" d="M490,244.5c-26-0.2-35.3-19.1-33.2-36.5c-3.5,3.6-2.5,14.5,1.9,22.5C464.7,241.3,477.4,246.9,490,244.5z"/>
	<path class="st7" d="M494,195.1c3,1.4,5.4,3.4,7.3,6c1,0,1.8,0.1,2.4,1.1c3.4,5.4,5.1,11.2,3.2,17.6c0,0-0.2,0.2-0.2,0.2
		s0.1,0.3,0.1,0.3c0.1,0.8,0.2,1.5,0.3,2.5c4.5-7.4,2.5-18.5-4.6-25.7c-4.8-4.9-15.8-9.1-22.5-5C484.7,193.1,490.1,190.6,494,195.1z
		"/>
	<path class="st7" d="M466.4,226.5c-1.5-2.1-2.9-4.1-2.6-6.9c-1.4-3.6-0.2-7.3-0.9-10.9c-2.6,6.9-2,13.6,1.9,20
		c4.7,7.7,13.8,11.7,23.6,10c-8.4-1.9-16.9-2.4-20.8-11c0,0-0.1,0-0.1,0C466.7,227.7,466.5,227.1,466.4,226.5z"/>
	<path class="st7" d="M489.6,237.8c0.2,0.3,0.4,0.5,0.5,0.5c0.2,0,0.5,0,0.7-0.1c0,0-0.1-0.5-0.1-0.5
		C490.3,237.7,490,237.7,489.6,237.8z"/>
	<path class="st7" d="M475.7,186.9c0.1,0.1,0.2,0.3,0.2,0.2c0.2,0,0.4-0.2,0.6-0.2c-0.1-0.1-0.2-0.3-0.2-0.2
		C476.1,186.7,475.9,186.8,475.7,186.9z"/>
	<path class="st7" d="M477.7,192.9c0.1,0,0.2-0.1,0.3-0.1c-0.1-0.1-0.3-0.2-0.4-0.4c-0.1,0.1-0.2,0.2-0.3,0.3
		C477.5,192.7,477.6,192.8,477.7,192.9z"/>
	<path class="st7" d="M512.1,227.5c0,0.1-0.2,0.2-0.1,0.3c0.1,0.4,0.3,0.4,0.5,0.1c0.1-0.1,0-0.3-0.1-0.4
		C512.3,227.5,512.2,227.5,512.1,227.5z"/>
	<path class="st6" d="M157.7,232.9c0.5,0.4,0.6,0.1,0.7-0.3C158.1,232.6,157.9,232.7,157.7,232.9z"/>
	<path class="st6" d="M466.4,226.5c0.1,0.6,0.3,1.1,1,1.2C467.8,226.8,467.2,226.5,466.4,226.5z"/>
</g>
</svg>
