<?xml version="1.0" encoding="utf-8"?>
<!-- Generator: Adobe Illustrator 26.1.0, SVG Export Plug-In . SVG Version: 6.00 Build 0)  -->
<svg version="1.1" id="Layer_1" xmlns="http://www.w3.org/2000/svg" xmlns:xlink="http://www.w3.org/1999/xlink" x="0px" y="0px"
	 viewBox="0 0 700 700" style="enable-background:new 0 0 700 700;" xml:space="preserve">
<style type="text/css">
	.st0{fill-rule:evenodd;clip-rule:evenodd;}
</style>
<symbol  id="a" viewBox="0 0 0 0">
	<path d="M0,0L0,0L0,0L0,0L0,0L0,0L0,0z M0,0L0,0L0,0z"/>
</symbol>
<symbol  id="b" viewBox="0 0 0 0">
	<path d="M0,0L0,0L0,0L0,0L0,0z"/>
</symbol>
<symbol  id="c" viewBox="0 0 0 0">
	<path d="M0,0L0,0L0,0z M0,0L0,0L0,0C0,0,0,0,0,0L0,0L0,0z"/>
</symbol>
<symbol  id="d" viewBox="0 0 0 0">
	<path d="M0,0L0,0L0,0L0,0L0,0z"/>
</symbol>
<symbol  id="e" viewBox="0 0 0 0">
	<path d="M0,0L0,0L0,0L0,0L0,0z M0,0L0,0L0,0L0,0L0,0z"/>
</symbol>
<symbol  id="f" viewBox="0 0 0 0">
	<path d="M0,0L0,0L0,0L0,0L0,0z M0,0L0,0L0,0L0,0L0,0z"/>
</symbol>
<symbol  id="g" viewBox="0 0 0 0">
	<path d="M0,0L0,0L0,0L0,0L0,0L0,0L0,0z"/>
</symbol>
<symbol  id="h" viewBox="0 0 0 0">
	<path d="M0,0L0,0L0,0L0,0L0,0z"/>
</symbol>
<symbol  id="i" viewBox="0 0 0 0">
	<path d="M0,0L0,0L0,0L0,0z M0,0L0,0L0,0z"/>
</symbol>
<symbol  id="j" viewBox="0 0 0 0">
	<path d="M0,0L0,0L0,0L0,0L0,0L0,0z"/>
</symbol>
<symbol  id="k" viewBox="0 0 0 0">
	<path d="M0,0L0,0L0,0L0,0L0,0z M0,0L0,0L0,0L0,0L0,0z"/>
</symbol>
<symbol  id="l" viewBox="0 0 0 0">
	<path d="M0,0L0,0L0,0L0,0L0,0L0,0L0,0z"/>
</symbol>
<symbol  id="m" viewBox="0 0 0 0">
	<path d="M0,0L0,0L0,0z"/>
</symbol>
<symbol  id="n" viewBox="0 0 0 0">
	<path d="M0,0L0,0L0,0L0,0L0,0z"/>
</symbol>
<symbol  id="o" viewBox="0 0 0 0">
	<path d="M0,0L0,0L0,0L0,0L0,0L0,0L0,0z"/>
</symbol>
<symbol  id="p" viewBox="0 0 0 0">
	<path d="M0,0L0,0L0,0L0,0L0,0L0,0L0,0L0,0z"/>
</symbol>
<symbol  id="q" viewBox="0 0 0 0">
	<path d="M0,0L0,0L0,0L0,0L0,0L0,0L0,0z"/>
</symbol>
<symbol  id="r" viewBox="0 0 0 0">
	<path d="M0,0L0,0L0,0L0,0L0,0L0,0L0,0L0,0L0,0L0,0L0,0z"/>
</symbol>
<symbol  id="s" viewBox="0 0 0 0">
	<path d="M0,0L0,0L0,0z"/>
</symbol>
<symbol  id="t" viewBox="0 0 0 0">
	<path d="M0,0L0,0L0,0z"/>
</symbol>
<symbol  id="u" viewBox="0 0 0 0">
	<path d="M0,0L0,0L0,0L0,0L0,0L0,0L0,0z"/>
</symbol>
<g>
	<path class="st0" d="M410.2,478.6c-0.6,11.4-4.5,21-16.2,21c-25.6,0-14.3-53.6-29.6-69c-18.4-18.4-32.6-29.9-31-47.4
		c-36.8,33.3-1.6,78.4-17.8,95.6c-3.1,3.3-7.3,4.8-11.8,5c-9.4,0.4-16.1-4.1-20.4-10.7c-7.9,17.5-8.3,36.4,2.4,54.7l15,25.5
		l-27-12.1c-94.1-42.2-76.8-143-37-218.7l17.1-32.6l0.8,36.8c0.5,25.8,43.5,56.1,27.4-28.4c-5.8-30.7,9.9-63.2,34.8-81.1l23.4-16.9
		l-8.9,27.5c-36.8,113.5,92.3,47,7.9-80.4l-26.7-40.3l39.9,27.2c51.5,35.2,85.1,80,77.2,144.5c-2.4,19.6-8.1,37.4-13.2,56.3
		c-2.1,7.7-6.7,23.8-2.8,31.3c1.8,3.4,5.5,5.4,9,6.6c16.4,5.9,11.9-34.9,10.9-42.2l-4.9-36.1l21.9,29.1
		c36.2,48.3,64,113.8,26.4,169.6c-14.8,22-37.1,37.7-61.3,47.7l-21.7,9l9.5-21.5c1.2-2.8,2.3-5.7,3.3-8.6
		C409.9,509.8,413.3,492.5,410.2,478.6L410.2,478.6z M347.1,142.3c97.6,147.3-67.4,214.1-24.8,82.7c0,0-39.3,28.3-31,71.7
		c19,100-45.4,68.1-46.2,30.3c-59.4,113.3-26,179.5,32.5,205.7c-13.4-22.8-14.4-52.5,8.9-82.7c0,0,0,25.3,16.8,24.5
		c27.2-1.2-35.9-77.3,51.7-115.6c-25,33.8-6.9,42.1,16.1,65.1c17.2,17.2,9.6,66.2,22.9,66.2c13.4,0,3.1-40.6,3.1-40.6
		s38.3,12.3,18.4,73.5c-1.1,3.3-2.3,6.5-3.6,9.5c67.7-27.9,109-98.9,31-202.9c0,0,9,64.1-23.4,52.4
		C356.6,359.4,501.7,247.9,347.1,142.3L347.1,142.3z"/>
	<use xlink:href="#u"  width="0" height="0" x="0" y="0" transform="matrix(1 0 0 1 70.0078 560.0781)" style="overflow:visible;"/>
	<use xlink:href="#d"  width="0" height="0" x="0" y="0" transform="matrix(1 0 0 1 70.0273 560.0781)" style="overflow:visible;"/>
	<use xlink:href="#a"  width="0" height="0" x="0" y="0" transform="matrix(1 0 0 1 70.043 560.0781)" style="overflow:visible;"/>
	<use xlink:href="#c"  width="0" height="0" x="0" y="0" transform="matrix(1 0 0 1 70.0625 560.0781)" style="overflow:visible;"/>
	<use xlink:href="#b"  width="0" height="0" x="0" y="0" transform="matrix(1 0 0 1 70.0781 560.0781)" style="overflow:visible;"/>
	<g>
		<defs>
			<rect id="SVGID_1_" x="70.1" y="560.1" width="700" height="700"/>
		</defs>
		<clipPath id="SVGID_00000000209528226896670440000008751792343983167616_">
			<use xlink:href="#SVGID_1_"  style="overflow:visible;"/>
		</clipPath>
		<g style="clip-path:url(#SVGID_00000000209528226896670440000008751792343983167616_);">
			
				<use xlink:href="#a"  width="0" height="0" x="0" y="0" transform="matrix(1 0 0 1 70.0938 560.0781)" style="overflow:visible;"/>
		</g>
	</g>
	<use xlink:href="#k"  width="0" height="0" x="0" y="0" transform="matrix(1 0 0 1 70.1133 560.0781)" style="overflow:visible;"/>
	<use xlink:href="#f"  width="0" height="0" x="0" y="0" transform="matrix(1 0 0 1 70.1406 560.0781)" style="overflow:visible;"/>
	<use xlink:href="#j"  width="0" height="0" x="0" y="0" transform="matrix(1 0 0 1 70.1641 560.0781)" style="overflow:visible;"/>
	<use xlink:href="#i"  width="0" height="0" x="0" y="0" transform="matrix(1 0 0 1 70.1914 560.0781)" style="overflow:visible;"/>
	<use xlink:href="#h"  width="0" height="0" x="0" y="0" transform="matrix(1 0 0 1 70.2109 560.0781)" style="overflow:visible;"/>
	<g>
		<defs>
			<rect id="SVGID_00000176021854571579257460000014845423434751212174_" x="70.2" y="560.1" width="700" height="700"/>
		</defs>
		<clipPath id="SVGID_00000089557838718420408810000013685796001606495647_">
			<use xlink:href="#SVGID_00000176021854571579257460000014845423434751212174_"  style="overflow:visible;"/>
		</clipPath>
		<g style="clip-path:url(#SVGID_00000089557838718420408810000013685796001606495647_);">
			
				<use xlink:href="#a"  width="0" height="0" x="0" y="0" transform="matrix(1 0 0 1 70.2227 560.0781)" style="overflow:visible;"/>
		</g>
	</g>
	<g>
		<defs>
			<rect id="SVGID_00000055674461184502128070000014260765595956048803_" x="70.2" y="560.1" width="700" height="700"/>
		</defs>
		<clipPath id="SVGID_00000111895072198394079740000014262943959700391081_">
			<use xlink:href="#SVGID_00000055674461184502128070000014260765595956048803_"  style="overflow:visible;"/>
		</clipPath>
		<g style="clip-path:url(#SVGID_00000111895072198394079740000014262943959700391081_);">
			
				<use xlink:href="#f"  width="0" height="0" x="0" y="0" transform="matrix(1 0 0 1 70.2422 560.0781)" style="overflow:visible;"/>
		</g>
	</g>
	<g>
		<defs>
			<rect id="SVGID_00000162315057086861910700000007974378474554077365_" x="70.3" y="560.1" width="700" height="700"/>
		</defs>
		<clipPath id="SVGID_00000124119253235616743570000016597903518151914373_">
			<use xlink:href="#SVGID_00000162315057086861910700000007974378474554077365_"  style="overflow:visible;"/>
		</clipPath>
		<g style="clip-path:url(#SVGID_00000124119253235616743570000016597903518151914373_);">
			
				<use xlink:href="#c"  width="0" height="0" x="0" y="0" transform="matrix(1 0 0 1 70.2617 560.0781)" style="overflow:visible;"/>
		</g>
	</g>
	<use xlink:href="#g"  width="0" height="0" x="0" y="0" transform="matrix(1 0 0 1 70.2812 560.0781)" style="overflow:visible;"/>
	<use xlink:href="#t"  width="0" height="0" y="0" transform="matrix(1 0 0 1 70.293 560.0781)" style="overflow:visible;"/>
	<use xlink:href="#s"  width="0" height="0" y="0" transform="matrix(1 0 0 1 70.3047 560.0781)" style="overflow:visible;"/>
	<g>
		<defs>
			<rect id="SVGID_00000167398498773048896090000006560602791336198062_" x="70.3" y="560.1" width="700" height="700"/>
		</defs>
		<clipPath id="SVGID_00000163756067451592483450000007332603359672760764_">
			<use xlink:href="#SVGID_00000167398498773048896090000006560602791336198062_"  style="overflow:visible;"/>
		</clipPath>
		<g style="clip-path:url(#SVGID_00000163756067451592483450000007332603359672760764_);">
			
				<use xlink:href="#c"  width="0" height="0" x="0" y="0" transform="matrix(1 0 0 1 70.3203 560.0781)" style="overflow:visible;"/>
		</g>
	</g>
	<g>
		<defs>
			<rect id="SVGID_00000065792008217079475920000006617384561369460650_" x="70" y="560.1" width="700" height="700"/>
		</defs>
		<clipPath id="SVGID_00000098908117843612916850000008252819526497072290_">
			<use xlink:href="#SVGID_00000065792008217079475920000006617384561369460650_"  style="overflow:visible;"/>
		</clipPath>
		<g style="clip-path:url(#SVGID_00000098908117843612916850000008252819526497072290_);">
			
				<use xlink:href="#h"  width="0" height="0" x="0" y="0" transform="matrix(1 0 0 1 70.0078 560.1055)" style="overflow:visible;"/>
		</g>
	</g>
	<g>
		<defs>
			<rect id="SVGID_00000154419364671581158650000000420676825871768222_" x="70" y="560.1" width="700" height="700"/>
		</defs>
		<clipPath id="SVGID_00000162317762109637473140000007791591771432713407_">
			<use xlink:href="#SVGID_00000154419364671581158650000000420676825871768222_"  style="overflow:visible;"/>
		</clipPath>
		<g style="clip-path:url(#SVGID_00000162317762109637473140000007791591771432713407_);">
			
				<use xlink:href="#d"  width="0" height="0" x="0" y="0" transform="matrix(1 0 0 1 70.0195 560.1055)" style="overflow:visible;"/>
		</g>
	</g>
	<use xlink:href="#e"  width="0" height="0" x="0" y="0" transform="matrix(1 0 0 1 70.0352 560.1055)" style="overflow:visible;"/>
	<use xlink:href="#r"  width="0" height="0" x="0" y="0" transform="matrix(1 0 0 1 70.0625 560.1055)" style="overflow:visible;"/>
	<g>
		<defs>
			<rect id="SVGID_00000008131100385130814710000009591025441659311274_" x="70.1" y="560.1" width="700" height="700"/>
		</defs>
		<clipPath id="SVGID_00000070119680551832614040000013941744730911570311_">
			<use xlink:href="#SVGID_00000008131100385130814710000009591025441659311274_"  style="overflow:visible;"/>
		</clipPath>
		<g style="clip-path:url(#SVGID_00000070119680551832614040000013941744730911570311_);">
			
				<use xlink:href="#b"  width="0" height="0" x="0" y="0" transform="matrix(1 0 0 1 70.0938 560.1055)" style="overflow:visible;"/>
		</g>
	</g>
	<use xlink:href="#q"  width="0" height="0" x="0" y="0" transform="matrix(1 0 0 1 70.1055 560.1055)" style="overflow:visible;"/>
	<g>
		<defs>
			<rect id="SVGID_00000156573169353581508840000016230423983279483570_" x="70.1" y="560.1" width="700" height="700"/>
		</defs>
		<clipPath id="SVGID_00000060722649336652818100000006361814090441783198_">
			<use xlink:href="#SVGID_00000156573169353581508840000016230423983279483570_"  style="overflow:visible;"/>
		</clipPath>
		<g style="clip-path:url(#SVGID_00000060722649336652818100000006361814090441783198_);">
			
				<use xlink:href="#a"  width="0" height="0" x="0" y="0" transform="matrix(1 0 0 1 70.125 560.1055)" style="overflow:visible;"/>
		</g>
	</g>
	<use xlink:href="#p"  width="0" height="0" x="0" y="0" transform="matrix(1 0 0 1 70.1523 560.1055)" style="overflow:visible;"/>
	<g>
		<defs>
			<rect id="SVGID_00000106859026161410960020000011640301438638865817_" x="70.2" y="560.1" width="700" height="700"/>
		</defs>
		<clipPath id="SVGID_00000122709816302086403270000000268810959161037471_">
			<use xlink:href="#SVGID_00000106859026161410960020000011640301438638865817_"  style="overflow:visible;"/>
		</clipPath>
		<g style="clip-path:url(#SVGID_00000122709816302086403270000000268810959161037471_);">
			
				<use xlink:href="#e"  width="0" height="0" x="0" y="0" transform="matrix(1 0 0 1 70.1758 560.1055)" style="overflow:visible;"/>
		</g>
	</g>
	<g>
		<defs>
			<rect id="SVGID_00000023266786409472688510000008681000766698170291_" x="70.2" y="560.1" width="700" height="700"/>
		</defs>
		<clipPath id="SVGID_00000008854222417027291920000000266676152505960631_">
			<use xlink:href="#SVGID_00000023266786409472688510000008681000766698170291_"  style="overflow:visible;"/>
		</clipPath>
		<g style="clip-path:url(#SVGID_00000008854222417027291920000000266676152505960631_);">
			
				<use xlink:href="#g"  width="0" height="0" x="0" y="0" transform="matrix(1 0 0 1 70.1953 560.1055)" style="overflow:visible;"/>
		</g>
	</g>
	<use xlink:href="#o"  width="0" height="0" x="0" y="0" transform="matrix(1 0 0 1 70.2148 560.1055)" style="overflow:visible;"/>
	<use xlink:href="#n"  width="0" height="0" x="0" y="0" transform="matrix(1 0 0 1 70.2461 560.1055)" style="overflow:visible;"/>
	<g>
		<defs>
			<rect id="SVGID_00000105408240803238441500000001478506315248203451_" x="70.3" y="560.1" width="700" height="700"/>
		</defs>
		<clipPath id="SVGID_00000144299968414715729170000015307230927414683539_">
			<use xlink:href="#SVGID_00000105408240803238441500000001478506315248203451_"  style="overflow:visible;"/>
		</clipPath>
		<g style="clip-path:url(#SVGID_00000144299968414715729170000015307230927414683539_);">
			
				<use xlink:href="#d"  width="0" height="0" x="0" y="0" transform="matrix(1 0 0 1 70.2656 560.1055)" style="overflow:visible;"/>
		</g>
	</g>
	<g>
		<defs>
			<rect id="SVGID_00000047763507598610932320000017740892237481076620_" x="70.3" y="560.1" width="700" height="700"/>
		</defs>
		<clipPath id="SVGID_00000000911843795702119690000007527997252171643270_">
			<use xlink:href="#SVGID_00000047763507598610932320000017740892237481076620_"  style="overflow:visible;"/>
		</clipPath>
		<g style="clip-path:url(#SVGID_00000000911843795702119690000007527997252171643270_);">
			
				<use xlink:href="#e"  width="0" height="0" x="0" y="0" transform="matrix(1 0 0 1 70.2812 560.1055)" style="overflow:visible;"/>
		</g>
	</g>
	<use xlink:href="#m"  width="0" height="0" y="0" transform="matrix(1 0 0 1 70.293 560.1055)" style="overflow:visible;"/>
	<use xlink:href="#l"  width="0" height="0" x="0" y="0" transform="matrix(1 0 0 1 70.3281 560.1055)" style="overflow:visible;"/>
</g>
</svg>
