<?xml version="1.0" encoding="utf-8"?>
<!-- Generator: Adobe Illustrator 26.1.0, SVG Export Plug-In . SVG Version: 6.00 Build 0)  -->
<svg version="1.1" id="Layer_1" xmlns="http://www.w3.org/2000/svg" xmlns:xlink="http://www.w3.org/1999/xlink" x="0px" y="0px"
	 viewBox="0 0 700 700" style="enable-background:new 0 0 700 700;" xml:space="preserve">
<style type="text/css">
	.st0{fill:none;stroke:#000000;stroke-width:6;stroke-linecap:round;stroke-linejoin:round;}
</style>
<path class="st0" d="M479.6,267.9c5.8,2.8,16.3,9.4,31.5,19.7c6.3,4.2,13.4,10.1,21.5,17.5c8,7.5,13.2,14.2,15.6,20.2
	c2.4,5.9,6.2,25.2,11.4,57.7c5.1,32.5-10.7,72.6-47.4,120.1c15.1-7,28.9-15.3,41.3-24.9c28-21.7,42.8-44.9,44.4-69.7
	c3.3-20.9,1.6-42.9-4.9-66.1c-12.8-46.3-43.1-74.9-90.6-85.7c-15.4-4.3-31.6-7.9-48.6-10.9c-33.8-6.3-54.6-6.7-62.3-1.1l-1.1,11.2
	l-26.9,5.6h-1.8l4.6,3.6c3.3,3.5,5.5,8.4,6.6,14.6 M512.2,503.1c-16.8,10.6-38,16.6-63.7,17.9l-3.9,0.3c-3.7,0-7.7,0.7-11.9,2.2
	l-5.6,2c-16.6,6.7-35.1,9.2-55.6,7.6l-22.1-4.8c-6.5-1.5-15.1-1.6-25.6-0.3l-5.9,0.8c-25.6,7-51.5,4.8-77.7-6.4l-6.3-1.1
	c-39.3-5.4-67.1-18.8-83.5-40.2c-0.3-0.4-0.7-0.8-1-1.3l-23.3-30.8c-40.8-71.7-32.9-126.6,23.8-164.9c28.2-19,60.6-31,96.9-35.8
	c27.3-5.1,44.9-7.2,52.9-6.3c7.9,0.9,14.9,0.6,21-1l3.8-13.7c3.3-15.6,9.5-35.2,18.6-58.8l9.4-14.8c7.2-10.5,13.8-17,19.6-19.6
	l-1.1,0.8c-1.1,6.8,3.1,11.8,12.6,15c9.5,3.2,14.7,4.9,15.4,5.2c-6.1,10.6-11,22.2-14.7,34.7c-7.7,25-5.9,42.4,5.2,52.1 M364.1,161
	c-11.2,20.3-16.8,34.4-16.8,42.3c0,7.9-0.9,16.4-2.6,25.3c-1.7,8.9-7.2,19.4-16.6,31.5l6.3,8.4c7.5-5,15.2-7.4,23.1-7l6.3-1.1
	c-5.5-8.3-6.3-18-2.5-29.1c3.9-11.1,5.9-20.9,6-29.5c0.1-8.6,2.9-19,8.4-31.2 M361.7,261.5h-4.2 M363.4,261.5
	c0.1-0.4,0.2-0.8,0.4-1.1l11.7-2.1C370.5,259.3,366.5,260.3,363.4,261.5L363.4,261.5z M320.7,241c-1.4,3.5-3.5,7.3-6.3,11.5
	c3.5,2.6,8.1,5.1,13.6,7.6c-6.8,1.5-15.4,5-25.9,10.6 M523.4,278.3L537,285c6.1,2.8,11.5,6.7,16.4,11.8
	c16.1,15.9,26.8,41.2,32.2,75.9 M410.3,255.3l22.8,5.6c24.1,5.8,43.5,19.6,58.1,41.4 M153.4,341.6c1.2-9.7,16.6-27,46.2-51.8
	c29.5-24.8,67.8-37.2,114.8-37.2 M175.1,285.6c-45.3,31.9-64.2,71.2-56.7,117.9c2.6,16.5,8.4,33.9,17.3,52.1
	c1.7,3.4,3.5,6.9,5.4,10.4c2.1,3.9,4.4,7.9,6.8,11.9c0.5,0.7,0.9,1.4,1.4,2.1 M185.6,402l15.1,23.5c7.9,12.1,16.6,20.3,25.9,24.4
	l26.2-14.8v23.2l18.2,7l40.2,6.2l23.8-23.2l18.9,24.6c32.5-0.4,51.3-2.8,56.3-7l16.5-26.6l20.3,11.2c12.6-12.7,23.1-26.2,31.5-40.6
	c-21.5,10.3-46.5,16.3-75.2,18.2l-15.8,16.2L362,427.5c-23.1,1.9-39.4,1.6-49-0.8l-31.5,14l-12.2-23
	C221.7,413.4,193.8,408.2,185.6,402L185.6,402z M380.6,364.5l37.8-49.8l31.5,49.8H380.6z M225.2,364.5l37.8-49.8l31.5,49.8H225.2z"
	/>
</svg>
